<svg xmlns="http://www.w3.org/2000/svg" viewBox="0 0 243 243" width="512" height="512"><path d="M211.5 0h-180A2.5 2.5 0 0 0 29 2.5v180a2.5 2.5 0 0 0 2.5 2.5h14.143v28.291c0 12.538 10.2 22.738 22.738 22.738h4.591c1.284 4.039 5.065 6.971 9.527 6.971h78.002c4.462 0 8.243-2.932 9.527-6.971h4.591c12.538 0 22.738-10.2 22.738-22.738V185H211.5a2.5 2.5 0 0 0 2.5-2.5V2.5a2.5 2.5 0 0 0-2.5-2.5zM75.643 211.737a9.997 9.997 0 0 0-2.691 4.292h-4.57a2.741 2.741 0 0 1-2.738-2.738V185h10v26.737zM147.357 209H95.643v-24h51.715v24zm30 4.291a2.741 2.741 0 0 1-2.738 2.738h-4.57a10.006 10.006 0 0 0-2.691-4.292V185h10v28.291zM121.5 169.5c-42.526 0-77-34.474-77-77s34.474-77 77-77 77 34.474 77 77-34.474 77-77 77zm46.01-75.637c2.105-1.135 4.203-2.258 6.279-3.37 2.049-1.168 4.076-2.323 6.031-3.439 1.957-1.123 3.86-2.202 5.64-3.319.14-.084.276-.166.406-.255-2.262-16.313-10.577-30.704-22.623-40.796-.166.223-.341.469-.511.703-.749 1.031-1.597 2.186-2.514 3.448-.986 1.269-2.04 2.642-3.16 4.096-1.105 1.466-2.358 2.981-3.652 4.555-1.287 1.577-2.63 3.207-3.986 4.87-1.414 1.619-2.85 3.275-4.295 4.939-.01 0-.012.006-.014.018.094-1.606.195-3.237.305-4.889.14-2.336.178-4.71.267-7.088.076-2.383.152-4.767.22-7.115.014-2.369.023-4.692.034-6.946.014-2.265.024-4.454-.05-6.551 0-.171-.011-.317-.013-.483a64.62 64.62 0 0 0-24.374-4.74 64.97 64.97 0 0 0-22.282 3.916c.117.268.233.547.368.824.511 1.164 1.094 2.471 1.729 3.904.609 1.479 1.269 3.08 1.966 4.781.715 1.693 1.401 3.528 2.121 5.432.722 1.918 1.462 3.881 2.22 5.885.699 2.045 1.412 4.119 2.125 6.195 0 .008.009.013.011.027-1.345-.895-2.703-1.796-4.087-2.713-1.945-1.287-3.977-2.511-6.004-3.776-2.021-1.251-4.051-2.513-6.044-3.751-2.044-1.191-4.053-2.366-6.003-3.498-1.946-1.141-3.839-2.24-5.69-3.23-.15-.081-.278-.146-.419-.229-12.417 9.706-21.204 23.822-24.023 39.996.28.027.571.063.865.084 1.26.139 2.69.292 4.251.457 1.587.209 3.302.443 5.12.696 1.825.216 3.755.546 5.764.878 2.016.331 4.098.672 6.208 1.021 2.118.412 4.275.832 6.423 1.252h.026l-4.383 2.188c-2.092 1.043-4.163 2.192-6.271 3.303-2.098 1.129-4.203 2.252-6.272 3.369a2422.475 2422.475 0 0 0-6.03 3.441c-1.967 1.117-3.87 2.203-5.647 3.318-.139.084-.27.16-.408.249 2.262 16.319 10.579 30.704 22.625 40.801.166-.226.341-.468.518-.708.749-1.029 1.59-2.184 2.505-3.448.986-1.268 2.042-2.64 3.17-4.094 1.096-1.468 2.349-2.983 3.643-4.551 1.296-1.581 2.63-3.208 3.988-4.868a3006.14 3006.14 0 0 0 4.293-4.939c.002-.002.012-.014.022-.02l-.305 4.889c-.139 2.336-.177 4.704-.267 7.088-.076 2.381-.152 4.77-.229 7.111l-.034 6.949c-.014 2.262-.024 4.449.052 6.547 0 .17.011.322.011.482a64.609 64.609 0 0 0 24.374 4.74c7.833 0 15.334-1.379 22.282-3.916-.114-.266-.231-.545-.359-.824-.518-1.162-1.103-2.47-1.737-3.898-.607-1.484-1.268-3.086-1.957-4.781-.722-1.693-1.41-3.534-2.121-5.432-.722-1.912-1.468-3.887-2.219-5.891-.709-2.04-1.42-4.119-2.133-6.189-.002-.008-.002-.019-.011-.031 1.343.899 2.701 1.795 4.087 2.717 1.943 1.281 3.983 2.505 6.002 3.77l6.046 3.757c2.045 1.188 4.051 2.362 6.004 3.498 1.952 1.135 3.836 2.24 5.689 3.225.148.083.278.151.417.233 12.418-9.711 21.203-23.821 24.03-39.996-.28-.031-.58-.064-.874-.089-1.26-.138-2.682-.285-4.241-.45-1.588-.216-3.312-.444-5.128-.703-1.817-.21-3.757-.536-5.764-.87-2.016-.336-4.098-.674-6.207-1.023-2.121-.413-4.268-.837-6.426-1.255h-.026c1.436-.72 2.898-1.447 4.392-2.19 2.085-1.036 4.154-2.192 6.264-3.298zM121.5 109.5c-9.389 0-17-7.611-17-17s7.611-17 17-17 17 7.611 17 17-7.611 17-17 17z" fill="#ffcb01"/></svg>