<svg xmlns="http://www.w3.org/2000/svg" viewBox="0 0 512 512"><linearGradient id="a" gradientUnits="userSpaceOnUse" x1="532.143" y1="254.103" x2="-13.857" y2="257.103"><stop offset="0" stop-color="#ffddb0"/><stop offset="1" stop-color="#ffcb01"/></linearGradient><path d="M509.1 196.9c-3.9-3.9-10.2-3.9-14.1 0l-72.2 72.2c-1.9 1.9-2.9 4.4-2.9 7.1v37.9c0 4.3-.4 8.6-1 12.8l-72.6-72.6L330 238c-10.4-10.4-24.7-16-39.4-15.3-14.7.7-28.5 7.5-37.9 18.8L203 301.2c-6 7.2-16.2 9-24.3 4.2-8.2-4.9-11.5-15.1-7.7-23.9l37.7-87c8.7-20.2 28.6-33.3 50.6-33.3H305c2.7 0 5.2-1.1 7.1-2.9l141-141.1c3.9-3.9 3.9-10.2 0-14.1s-10.2-3.9-14.1 0L300.7 141.3h-41.6c-7.9 0-15.5 1.2-22.8 3.5-14.3-12.2-32.3-18.9-51.3-18.9h-5.6L56.6 3.1c-3.9-3.9-10.2-3.9-14.1 0s-3.9 10.2 0 14.1L168.2 143c1.9 1.9 4.4 2.9 7.1 2.9h9.7c11.2 0 21.9 3.1 31.2 8.8-11.2 7.8-20.3 18.7-26 31.8l-37.7 87c-7.8 18-.9 39 15.9 49 6.2 3.7 13.1 5.5 19.9 5.5 11.2 0 22.2-4.9 29.9-14.1l49.7-59.7c5.9-7.1 14.2-11.2 23.4-11.6 9.2-.4 17.9 2.9 24.4 9.5l6.9 6.9v.1l9.2 9.2.2.2 83.5 83.5c6.4 6.4 6.4 16.9 0 23.3-3.1 3.1-7.3 4.8-11.7 4.8s-8.5-1.7-11.7-4.8l-40.8-40.8-24.4-24.5c-3.9-3.9-10.2-3.9-14.1 0s-3.9 10.2 0 14.1l24.5 24.5 40.8 40.8c6.4 6.4 6.4 16.9 0 23.3-3.1 3.1-7.3 4.8-11.7 4.8-4.4 0-8.5-1.7-11.7-4.8L314 371.9l-24.5-24.5c-3.9-3.9-10.2-3.9-14.1 0s-3.9 10.2 0 14.1l24.5 24.5 40.8 40.8c6.4 6.4 6.4 16.9 0 23.3-3.1 3.1-7.3 4.8-11.7 4.8-3.1 0-6.1-.9-8.7-2.5-.8-1-1.6-1.9-2.5-2.8l-19.1-19.1c-.9-.9-1.8-1.5-2.9-2L252 384.9c-3.9-3.9-10.2-3.9-14.1 0-3.9 3.9-3.9 10.2 0 14.1l65.3 65.3c.9.9 1.8 1.7 2.8 2.5 1.6 2.6 2.5 5.6 2.5 8.7 0 4.4-1.7 8.5-4.8 11.7-6.4 6.4-16.9 6.4-23.3 0L270 476.9c10.3-14.3 9-34.3-3.8-47.1-6.9-6.9-16.1-10.7-25.8-10.7h-1c.3-9.7-3.3-19.4-10.6-26.8-6.9-6.9-16.1-10.7-25.8-10.7h-1c.3-9.7-3.3-19.4-10.6-26.8-6.9-6.9-16.1-10.7-25.8-10.7h-1c.3-9.7-3.3-19.4-10.6-26.8-6.9-6.9-16.1-10.7-25.8-10.7s-18.9 3.8-25.8 10.7l-7.6 7.6c-15.8-18-24.8-40.6-25.7-64.6l48.7-48.7c3.9-3.9 3.9-10.2 0-14.1-3.9-3.9-10.2-3.9-14.1 0l-44.6 44.6-41.8-41.8c-3.9-3.9-10.2-3.9-14.1 0s-3.9 10.2 0 14.1l46 46c1 29.7 12.4 57.7 32.4 79.6-3 5.4-4.7 11.5-4.7 17.9 0 9.7 3.8 18.9 10.7 25.8 7.1 7.1 16.5 10.7 25.8 10.7h1v1c0 9.7 3.8 18.9 10.7 25.8 7.1 7.1 16.5 10.7 25.8 10.7h1v1c0 9.7 3.8 18.9 10.7 25.8 7.1 7.1 16.5 10.7 25.8 10.7h1v1c0 9.7 3.8 18.9 10.7 25.8 7.1 7.1 16.5 10.7 25.8 10.7s18.7-3.6 25.8-10.7l4.8-4.8 9.9 9.9c7.1 7.1 16.5 10.7 25.8 10.7s18.7-3.6 25.8-10.7c6.9-6.9 10.7-16.1 10.7-25.8v-.5h.5c9.7 0 18.9-3.8 25.8-10.7 7.4-7.4 10.9-17.1 10.6-26.8h1c9.7 0 18.9-3.8 25.8-10.7 7.4-7.4 10.9-17.1 10.6-26.8h1c9.7 0 18.9-3.8 25.8-10.7 12.2-12.2 13.9-30.8 5.3-44.9 3.2-9.8 4.8-20.1 4.8-30.4v-33.7l69.3-69.3c3.8-3.9 3.8-10.2-.1-14.1zM101.5 369.7c-6.4-6.4-6.4-16.9 0-23.3l14.8-14.8c3.1-3.1 7.3-4.8 11.7-4.8s8.5 1.7 11.7 4.8c6.4 6.4 6.4 16.9 0 23.3l-14.8 14.8c-6.5 6.4-16.9 6.4-23.4 0zm37.5 37.5c-6.4-6.4-6.4-16.9 0-23.3l14.8-14.8c3.1-3.1 7.3-4.8 11.7-4.8s8.5 1.7 11.7 4.8c6.4 6.4 6.4 16.9 0 23.3l-14.8 14.8c-6.5 6.4-17 6.4-23.4 0zm60.8 37.4c-6.4 6.4-16.9 6.4-23.3 0-6.4-6.4-6.4-16.9 0-23.3l14.8-14.8c3.1-3.1 7.3-4.8 11.7-4.8s8.5 1.7 11.7 4.8c6.4 6.4 6.4 16.9 0 23.3l-14.9 14.8zm52.3 22.7l-14.8 14.8c-6.4 6.4-16.9 6.4-23.3 0-6.4-6.4-6.4-16.9 0-23.3l14.8-14.8c3.1-3.1 7.3-4.8 11.7-4.8s8.5 1.7 11.7 4.8c6.3 6.4 6.3 16.8-.1 23.3z" fill="url(#a)"/><linearGradient id="b" gradientUnits="userSpaceOnUse" x1="531.109" y1="65.888" x2="-14.891" y2="68.888"><stop offset="0" stop-color="#ffddb0"/><stop offset="1" stop-color="#ffcb01"/></linearGradient><path d="M256 34.3c-5.5 0-10 4.5-10 10v46.2c0 5.5 4.5 10 10 10s10-4.5 10-10V44.3c0-5.5-4.5-10-10-10z" fill="url(#b)"/><linearGradient id="c" gradientUnits="userSpaceOnUse" x1="530.794" y1="8.49" x2="-15.206" y2="11.49"><stop offset="0" stop-color="#ffddb0"/><stop offset="1" stop-color="#ffcb01"/></linearGradient><path d="M263.1 2.9C261.2 1.1 258.6 0 256 0s-5.2 1.1-7.1 2.9S246 7.4 246 10s1.1 5.2 2.9 7.1c1.9 1.9 4.4 2.9 7.1 2.9 2.6 0 5.2-1.1 7.1-2.9 1.9-1.9 2.9-4.4 2.9-7.1s-1.1-5.2-2.9-7.1z" fill="url(#c)"/><linearGradient id="d" gradientUnits="userSpaceOnUse" x1="531.198" y1="82.024" x2="-14.802" y2="85.024"><stop offset="0" stop-color="#ffddb0"/><stop offset="1" stop-color="#ffcb01"/></linearGradient><path d="M326.8 66.7c-3.9-3.9-10.2-3.9-14.1 0l-19 19c-3.9 3.9-3.9 10.2 0 14.1 2 2 4.5 2.9 7.1 2.9s5.1-1 7.1-2.9l19-19c3.8-3.9 3.8-10.2-.1-14.1z" fill="url(#d)"/><linearGradient id="e" gradientUnits="userSpaceOnUse" x1="531.192" y1="80.976" x2="-14.808" y2="83.976"><stop offset="0" stop-color="#ffddb0"/><stop offset="1" stop-color="#ffcb01"/></linearGradient><path d="M217.5 84.8l-18.1-18.1c-3.9-3.9-10.2-3.9-14.1 0-3.9 3.9-3.9 10.2 0 14.1l18.1 18.1c2 2 4.5 2.9 7.1 2.9s5.1-1 7.1-2.9c3.8-3.9 3.8-10.2-.1-14.1z" fill="url(#e)"/><linearGradient id="f" gradientUnits="userSpaceOnUse" x1="531.721" y1="177.126" x2="-14.28" y2="180.126"><stop offset="0" stop-color="#ffddb0"/><stop offset="1" stop-color="#ffcb01"/></linearGradient><path d="M143.1 172.2c-1.9-1.9-4.4-2.9-7.1-2.9-2.6 0-5.2 1.1-7.1 2.9-1.9 1.9-2.9 4.4-2.9 7.1 0 2.6 1.1 5.2 2.9 7.1 1.9 1.9 4.4 2.9 7.1 2.9s5.2-1.1 7.1-2.9c1.9-1.9 2.9-4.4 2.9-7.1 0-2.7-1.1-5.3-2.9-7.1z" fill="url(#f)"/></svg>