<svg xmlns="http://www.w3.org/2000/svg" viewBox="0 0 397.889 397.889" width="512" height="512"><g fill="#ffcb01"><path d="M294.581 85.457c23.562 0 42.73-19.169 42.73-42.731a42.84 42.84 0 0 0-.378-5.593l4.949-.098c5.751-.115 11.95-4.119 14.419-9.314l4.089-8.605c1.538-3.237 1.457-6.618-.223-9.274-1.678-2.655-4.693-4.178-8.302-4.178l-35.922.083A42.45 42.45 0 0 0 294.581 0c-23.56 0-42.727 19.167-42.727 42.726 0 23.562 19.168 42.731 42.727 42.731zm99.493 111.009l-49.845-90.621c-3.501-6.366-7.88-11.353-19.201-11.353h-50.819c-7.069 0-12.763 5.234-14.108 6.649l-27.261 28.671c-4.413 4.641-8.897 13.188-10.208 19.458l-11.22 53.662a14.95 14.95 0 0 0-.278 2.25l-28.412 109.637H18.536c-8.284 0-15 6.716-15 15 0 3.561 1.247 6.828 3.32 9.4a35.183 35.183 0 0 0-4.92 17.977c0 19.526 15.887 35.412 35.415 35.412 19.529 0 35.417-15.886 35.417-35.412a35.23 35.23 0 0 0-2.237-12.377h66.272a35.23 35.23 0 0 0-2.237 12.377c0 19.526 15.887 35.412 35.415 35.412 19.529 0 35.417-15.886 35.417-35.412a35.184 35.184 0 0 0-4.113-16.538c4.362-3.051 7.692-7.568 9.07-12.884l29.858-115.216a15.598 15.598 0 0 0 1.776-3.896l12.157-41.379c.833-2.834 2.836-6.565 5.062-9.687v68.899l-33.192 142.32c-2.859 12.259 4.701 24.905 16.852 28.189l.354.096c1.939.524 3.928.79 5.913.79.001 0 0 0 0 0 10.413 0 19.348-7.12 21.725-17.313l30.292-129.885 11.816 32.095c3.254 8.839 6.822 24.218 7.791 33.584l6.332 61.148c1.119 10.805 9.642 18.646 20.266 18.646 1.735 0 3.496-.213 5.23-.633l.357-.086c12.041-2.916 20.576-15.288 19.027-27.58l-9.407-74.593c-1.284-10.178-5.314-26.251-8.985-35.831l-13.466-35.137c-.115-.3-.254-.587-.38-.881v-52.365l25.389 45.333c2.554 4.561 7.341 7.393 12.494 7.393 2.774 0 5.494-.812 7.867-2.347l3.349-2.168c6.786-4.392 9.136-13.724 5.242-20.804zM169.981 345.388c6.514 0 11.813 5.297 11.813 11.808s-5.299 11.809-11.813 11.809c-6.51 0-11.807-5.297-11.807-11.809s5.297-11.808 11.807-11.808zM37.35 369.005c-6.511 0-11.808-5.297-11.808-11.809s5.297-11.808 11.808-11.808c6.513 0 11.813 5.297 11.813 11.808s-5.3 11.809-11.813 11.809z"/><path d="M15.311 291.438h148.671c6.065 0 11-4.935 11-11V179.575c0-6.065-4.935-11-11-11H15.311c-6.065 0-11 4.935-11 11v100.863c0 6.066 4.935 11 11 11z"/></g></svg>