<svg id="Layer_1" xmlns="http://www.w3.org/2000/svg" viewBox="0 0 512 512"><style>.st0{fill:#ffcb01}.st1{fill:#333}</style><path class="st0" d="M80.3 208.1H30.1v15.6h50.2v17.7H61.8V257h18.5v38.3h239.5v-159H80.3v38.3H0v15.6h80.3v17.9zM95.9 152h208.2v127.7H95.9V257h34.5v-15.6H95.9v-17.7h70.5V208H95.9v-17.7h41.2v-15.6H95.9V152z"/><path class="st1" d="M420.5 199.3H370v92.6h113.5l-63-92.6zm-34.8 77V215h26.5l41.8 61.3h-68.3z"/><path class="st0" d="M512 274.5l-77.6-106.4h-79.9v-66.4H23.4v15.6h22.2v38.4h15.6v-38.4h277.6V353H187.2c-3.8-23.6-24.2-41.6-48.8-41.6s-45 18.1-48.8 41.6H61.2v-27.4h13.7V310H61.2v-34H45.6v92.7h44c3.8 23.6 24.2 41.6 48.8 41.6s45-18.1 48.8-41.6h189.4c3.8 23.6 24.2 41.6 48.8 41.6 24.6 0 45-18.1 48.8-41.6H512v-94.2zM138.4 394.7c-18.6 0-33.8-15.2-33.8-33.8s15.2-33.8 33.8-33.8 33.8 15.2 33.8 33.8-15.2 33.8-33.8 33.8zm287 0c-18.6 0-33.8-15.2-33.8-33.8s15.2-33.8 33.8-33.8c18.6 0 33.8 15.2 33.8 33.8s-15.2 33.8-33.8 33.8zm48.8-41.7c-3.8-23.6-24.2-41.6-48.8-41.6-24.6 0-45 18.1-48.8 41.6h-22.1V183.7h72l69.9 95.9V310h-13.7v15.6h13.7V353h-22.2z"/><path class="st1" d="M130 353h16.7v15.6H130zm287.1 0h16.7v15.6h-16.7zM0 174.3h137.1v16H0zm29 34h137.1v16H29zm32.8 33h69.3v16H61.8z"/></svg>