<svg xmlns="http://www.w3.org/2000/svg" viewBox="0 0 512 512"><linearGradient id="a" gradientUnits="userSpaceOnUse" x1="522" y1="256" x2="-8" y2="256"><stop offset="0" stop-color="#ffddb0"/><stop offset="1" stop-color="#ffcb01"/></linearGradient><path d="M509.5 300.9l-75.7-86.5c-1.9-2.2-4.7-3.5-7.7-3.5h-65.9v-61.2c0-5.6-4.6-10.2-10.2-10.2H203.5C193 93.8 152 59.5 103 59.5c-56.8 0-103 46.2-103 103 0 22.2 7.1 42.8 19.1 59.7v151.7h-8.9C4.6 373.8 0 378.4 0 384s4.6 10.2 10.2 10.2h8.9v11.9c0 5.6 4.6 10.2 10.2 10.2h20.1c4.7 20.7 23.2 36.2 45.2 36.2s40.6-15.5 45.2-36.2h239.3c4.7 20.7 23.2 36.2 45.2 36.2s40.6-15.5 45.2-36.2h32.2c5.6 0 10.2-4.6 10.2-10.2v-98.6c.1-2.3-.8-4.7-2.4-6.6zM206 160h133.8v170.6H39.5v-87.1c17.5 13.8 39.6 22 63.5 22 56.8 0 103-46.2 103-103V160zm-185.6 2.5c0-45.6 37.1-82.6 82.6-82.6s82.6 37.1 82.6 82.6-37.1 82.6-82.6 82.6-82.6-37.1-82.6-82.6zm74.2 269.6c-14.3 0-26-11.7-26-26s11.7-26 26-26 26 11.7 26 26c0 14.4-11.6 26-26 26zM339.8 396H139.9c-4.7-20.7-23.2-36.2-45.2-36.2-22.1 0-40.6 15.5-45.2 36.2h-9.9v-45h300.3l-.1 45zm95.8-148.5l44.3 50.6h-44.3v-50.6zm-11.2 184.6c-14.3 0-26-11.7-26-26s11.7-26 26-26 26 11.7 26 26c0 14.4-11.7 26-26 26zm67.2-36.1h-22c-4.7-20.7-23.2-36.2-45.2-36.2-22.1 0-40.6 15.5-45.2 36.2h-18.9V231.4h55v76.9c0 5.6 4.6 10.2 10.2 10.2h66.2l-.1 77.5z" fill="url(#a)"/><linearGradient id="b" gradientUnits="userSpaceOnUse" x1="522" y1="309.3" x2="-8" y2="309.3"><stop offset="0" stop-color="#ffddb0"/><stop offset="1" stop-color="#ffcb01"/></linearGradient><path d="M315.2 299.1h-85.7c-5.6 0-10.2 4.6-10.2 10.2s4.6 10.2 10.2 10.2h85.7c5.6 0 10.2-4.6 10.2-10.2s-4.6-10.2-10.2-10.2z" fill="url(#b)"/><linearGradient id="c" gradientUnits="userSpaceOnUse" x1="522" y1="309.3" x2="-8" y2="309.3"><stop offset="0" stop-color="#ffddb0"/><stop offset="1" stop-color="#ffcb01"/></linearGradient><path d="M197.9 299.1h-6.1c-5.6 0-10.2 4.6-10.2 10.2s4.6 10.2 10.2 10.2h6.1c5.6 0 10.2-4.6 10.2-10.2s-4.6-10.2-10.2-10.2z" fill="url(#c)"/><linearGradient id="d" gradientUnits="userSpaceOnUse" x1="522" y1="143" x2="-8" y2="143"><stop offset="0" stop-color="#ffddb0"/><stop offset="1" stop-color="#ffcb01"/></linearGradient><path d="M132.7 177.7l-19.5-19.5v-57c0-5.6-4.6-10.2-10.2-10.2s-10.2 4.6-10.2 10.2v61.2c0 2.7 1.1 5.3 3 7.2l22.4 22.4c2 2 4.6 3 7.2 3s5.2-1 7.2-3c4-3.9 4-10.3.1-14.3z" fill="url(#d)"/></svg>