<svg xmlns="http://www.w3.org/2000/svg" width="512" height="512"><path d="M322.92 425.61v44.822h132.614c26.554 0 48.643-19.433 52.821-44.822H322.92zM512 139.778v-22.473c0-41.761-33.975-75.738-75.738-75.738H286.55v174.47l23.264 58.427h29.887l23.773 57.351c.091.254.21.758-.198 1.356-.465.681-1.063.681-1.289.681H322.92v61.835h186.156v-65.761l-51.313-117.519C489.084 203.12 512 174.074 512 139.778zM251.641 41.569h-35.189c-17.173 0-31.548 12.193-34.929 28.376V187.14c3.382 16.183 17.757 28.376 34.929 28.376h40.176V41.569h-4.987zM140.874 71.49c-21.057 0-38.362 16.316-39.969 36.968-.399-.109-.735 1.965-.981 5.123H0v29.921h100.772v1.989c0 22.113 17.991 40.103 40.103 40.103h10.726V71.49h-10.727z" fill="#ffcb01"/></svg>