<svg xmlns="http://www.w3.org/2000/svg" width="512" height="512" viewBox="0 0 89.938 89.938"><path d="M88.461 37.406h-1.969a1.48 1.48 0 0 0-1.479 1.477v25.655a1.48 1.48 0 0 0 1.479 1.479h1.969a1.48 1.48 0 0 0 1.477-1.479V38.882c0-.813-.663-1.476-1.477-1.476zM1.477 36.157A1.48 1.48 0 0 0 0 37.634v28.164a1.48 1.48 0 0 0 1.477 1.478h4.015a1.48 1.48 0 0 0 1.477-1.478V37.642a1.48 1.48 0 0 0-1.477-1.477H1.477v-.008zm56.14 35.624c3.294-1.278 6.568-2.595 9.855-3.872.293-.113.634-.152.947-.16 2.432-.01 4.864-.01 7.288-.01 2.519 0 4.138-1.62 4.138-4.166v-8.331c0-.597.481-1.069 1.069-1.069l1.05-.027c.834 0 .883-.323.909-.9l.021-4.837a.87.87 0 0 0-.872-.871h-1.126a1.078 1.078 0 0 1-1.079-1.08l.036-10.101c.029-1.496-.576-2.527-1.723-3.352-1.969-1.42-7.771-5.538-8.719-6.144-.652-.427-1.363-.597-2.158-.587l-10.007-.01a1.543 1.543 0 0 1-1.543-1.543v-.312c0-.861.7-1.562 1.562-1.562h9.07c.86 0 1.562-.7 1.562-1.562v-1.809c0-.861-.701-1.562-1.562-1.562H36.222c-.862 0-1.562.7-1.562 1.562v1.809c0 .861.7 1.562 1.562 1.562h9.816c.862 0 1.563.701 1.563 1.562v.36c0 .852-.691 1.552-1.555 1.542l-9.911-.037c-1.895-.057-3.446.587-4.886 1.628-2.102 1.524-4.165 3.096-6.229 4.668a2.966 2.966 0 0 1-1.827.605c-1.987-.02-3.976-.02-5.964 0-2.471.019-4.07 1.609-4.09 4.09l.028 6.901a1.07 1.07 0 0 1-1.07 1.069h-.927a2.033 2.033 0 0 0-2.036 2.036v10.935c0 1.126.909 2.034 2.036 2.034h.899a1.07 1.07 0 0 1 1.069 1.07c0 1.57-.01 4.496 0 6.189 0 1.573-.028 4.526 2.85 4.526h40.37c.426.002.871-.083 1.259-.244z" fill="#ffcb01"/></svg>