<svg xmlns="http://www.w3.org/2000/svg" viewBox="0 0 512 512"><linearGradient id="a" gradientUnits="userSpaceOnUse" x1="538.01" y1="258.401" x2="-18.99" y2="257.401" gradientTransform="matrix(1 0 0 -1 0 514)"><stop offset="0" stop-color="#ffddb0"/><stop offset="1" stop-color="#ffcb01"/></linearGradient><path d="M505.7 271.5c-5.3-9.7-5.3-21.3 0-30.9 12-22.2 6.5-49.9-13.1-65.8-8.6-6.9-13-17.6-11.8-28.6 2.6-25.1-13-48.6-37.3-55.8-10.6-3.1-18.7-11.3-21.9-21.9-7.2-24.2-30.6-39.9-55.8-37.3-11 1.1-21.7-3.3-28.6-11.8C321.3-.2 293.7-5.7 271.5 6.3c-9.7 5.3-21.3 5.3-31 0-22.2-12-49.9-6.5-65.8 13.1-6.9 8.6-17.6 13-28.6 11.8-25.1-2.6-48.6 13-55.8 37.3C87.2 79.1 79 87.2 68.4 90.4c-24.2 7.2-39.9 30.6-37.3 55.8 1.1 11-3.3 21.7-11.8 28.6-19.6 15.9-25.1 43.6-13.1 65.8 5.3 9.7 5.3 21.3 0 31-12 22.2-6.5 49.9 13.1 65.8 8.6 6.9 13 17.6 11.8 28.6-2.6 25.1 13 48.6 37.3 55.8 10.6 3.1 18.7 11.3 21.9 21.9 7.2 24.2 30.6 39.9 55.8 37.3 11-1.1 21.7 3.3 28.6 11.8 15.9 19.6 43.6 25.1 65.8 13.1 9.7-5.3 21.3-5.3 31 0 7.9 4.3 16.5 6.3 25 6.3 15.4 0 30.5-6.8 40.8-19.4 6.9-8.6 17.6-13 28.6-11.8 1.8.2 3.7.3 5.5.3 23 0 43.6-15.1 50.3-37.5 3.1-10.6 11.3-18.7 21.9-21.9 24.2-7.2 39.9-30.6 37.3-55.8-1.1-11 3.3-21.7 11.8-28.6 19.5-16.2 25-43.8 13-66zm-17.6 9.5c7.5 13.7 4 30.9-8.1 40.7-13.8 11.2-21 28.5-19.1 46.2 1.6 15.5-8.1 30.1-23.1 34.5-17.1 5.1-30.3 18.3-35.4 35.4-4.4 15-18.9 24.7-34.5 23.1-17.7-1.9-35 5.3-46.2 19.1-9.8 12.1-27 15.5-40.7 8.1-7.8-4.2-16.4-6.4-25-6.4s-17.2 2.1-25 6.4c-13.7 7.5-30.9 4-40.7-8.1-11.2-13.8-28.5-21-46.2-19.1-15.5 1.6-30.1-8.1-34.5-23.1-5.1-17.1-18.3-30.3-35.4-35.4-15-4.4-24.7-19-23.1-34.5 1.9-17.7-5.3-35-19.1-46.2-12.1-9.8-15.5-27-8.1-40.7 8.5-15.7 8.5-34.4 0-50-7.5-13.7-4-30.9 8.1-40.7 13.8-11.2 21-28.5 19.1-46.2-1.6-15.5 8.1-30.1 23.1-34.5 17.1-5.1 30.3-18.3 35.4-35.4 4.4-15 18.9-24.7 34.5-23.1 17.7 1.9 35-5.3 46.2-19.1 9.8-12.1 27-15.5 40.7-8.1 15.7 8.5 34.4 8.5 50 0 13.7-7.5 30.9-4 40.7 8.1 11.2 13.8 28.5 21 46.2 19.1 15.5-1.6 30.1 8.1 34.5 23.1 5.1 17.1 18.3 30.3 35.4 35.4 15 4.4 24.7 19 23.1 34.5-1.9 17.7 5.3 35 19.1 46.2 12.1 9.8 15.5 27 8.1 40.7-8.5 15.7-8.5 34.4 0 50z" fill="url(#a)"/><linearGradient id="b" gradientUnits="userSpaceOnUse" x1="537.909" y1="314.504" x2="-19.091" y2="313.504" gradientTransform="matrix(1 0 0 -1 0 514)"><stop offset="0" stop-color="#ffddb0"/><stop offset="1" stop-color="#ffcb01"/></linearGradient><path d="M351.6 78c-37.4-20.1-81.4-28-123.7-22.1-43.8 6.1-83.4 25.9-114.8 57.2-29.8 29.8-49.2 67.4-56.3 108.8-6.9 40.5-1.5 81.5 15.6 118.6 1.7 3.7 5.3 5.8 9.1 5.8 1.4 0 2.8-.3 4.2-.9 5-2.3 7.2-8.3 4.9-13.3-31.7-68.9-17-151.2 36.7-204.9C183.7 70.9 272 57.9 342.1 95.6c4.9 2.6 10.9.8 13.5-4.1 2.7-4.8.9-10.9-4-13.5z" fill="url(#b)"/><linearGradient id="c" gradientUnits="userSpaceOnUse" x1="538.254" y1="122.8" x2="-18.747" y2="121.8" gradientTransform="matrix(1 0 0 -1 0 514)"><stop offset="0" stop-color="#ffddb0"/><stop offset="1" stop-color="#ffcb01"/></linearGradient><path d="M127.7 385.1l-.4-.4c-3.9-3.9-10.2-3.9-14.1 0s-3.9 10.2 0 14.1l.4.4c2 2 4.5 2.9 7.1 2.9s5.1-1 7.1-2.9c3.8-3.8 3.8-10.2-.1-14.1z" fill="url(#c)"/><linearGradient id="d" gradientUnits="userSpaceOnUse" x1="538.1" y1="208.388" x2="-18.9" y2="207.388" gradientTransform="matrix(1 0 0 -1 0 514)"><stop offset="0" stop-color="#ffddb0"/><stop offset="1" stop-color="#ffcb01"/></linearGradient><path d="M433.3 159.1c-2.7-4.8-8.7-6.6-13.6-4-4.8 2.7-6.6 8.7-4 13.6 38.5 70.4 25.8 159.2-31 216-53.5 53.5-132.8 68.4-202 37.9-5.1-2.2-11 .1-13.2 5.1-2.2 5.1.1 11 5.1 13.2 25.8 11.3 53.3 17.1 81.2 17.1 12 0 24-1.1 35.9-3.2 40.7-7.3 77.7-26.6 107.1-56 31.5-31.5 51.3-71.4 57.3-115.5 5.8-42.6-2.3-86.7-22.8-124.2z" fill="url(#d)"/><linearGradient id="e" gradientUnits="userSpaceOnUse" x1="537.767" y1="393.961" x2="-19.233" y2="392.961" gradientTransform="matrix(1 0 0 -1 0 514)"><stop offset="0" stop-color="#ffddb0"/><stop offset="1" stop-color="#ffcb01"/></linearGradient><path d="M399.1 113.4l-.3-.3c-3.9-3.9-10.2-3.9-14.1 0s-3.9 10.2 0 14.1l.3.3c2 2 4.5 2.9 7.1 2.9s5.1-1 7.1-2.9c3.8-3.8 3.8-10.2-.1-14.1z" fill="url(#e)"/><linearGradient id="f" gradientUnits="userSpaceOnUse" x1="537.993" y1="267.829" x2="-19.007" y2="266.829" gradientTransform="matrix(1 0 0 -1 0 514)"><stop offset="0" stop-color="#ffddb0"/><stop offset="1" stop-color="#ffcb01"/></linearGradient><path d="M383 266c0-11.3-6.8-21.1-16.5-25.5 1.3-3.2 2-6.8 2-10.5 0-15.4-12.6-28-28-28H297l2.9-8.5c4.5-13.4 3.4-27.7-3-40.2-6.5-12.6-17.5-21.7-31-25.8-5.1-1.5-10.5 1.2-12.3 6.2L238.3 176c-4 11-11.8 20.1-22.1 25.7l-12.2 6.6c-4-3.8-9.5-6.2-15.5-6.2h-43.1c-12.4 0-22.5 10.1-22.5 22.5v119c0 12.4 10.1 22.5 22.5 22.5h43.1c6.9 0 13-3.1 17.2-8l4.6 1.8c10.5 4.1 21.5 6.2 32.8 6.2H328c15.4 0 28-12.6 28-28 0-3.8-.8-7.4-2.1-10.7 9.5-4.5 16.1-14.2 16.1-25.3 0-3.9-.8-7.7-2.3-11.1 9.1-4.7 15.3-14.1 15.3-25zm-191.9 77.5c0 1.4-1.1 2.5-2.5 2.5h-43.1c-1.4 0-2.5-1.1-2.5-2.5v-119c0-1.4 1.1-2.5 2.5-2.5h43.1c1 0 1.9.6 2.3 1.5.1.3.1.5.2.8v119.2zM355 274h-45c-5.5 0-10 4.5-10 10s4.5 10 10 10h32c4.4 0 8 3.6 8 8s-3.6 8-8 8h-32c-5.5 0-10 4.5-10 10s4.5 10 10 10h18c4.4 0 8 3.6 8 8s-3.6 8-8 8h-84.9c-8.8 0-17.3-1.6-25.5-4.8l-6.6-2.6V227.2l14.7-8c14.6-7.9 25.7-20.9 31.3-36.5l11.6-32.1c4.4 2.9 7.9 7 10.4 11.8 4 7.7 4.6 16.5 1.9 24.7l-7.3 21.7c-1 3.1-.5 6.4 1.4 9s4.9 4.2 8.1 4.2h57.4c4.4 0 8 3.6 8 8s-3.6 8-8 8H310c-5.5 0-10 4.5-10 10s4.5 10 10 10h45c4.4 0 8 3.6 8 8s-3.6 8-8 8z" fill="url(#f)"/></svg>