<svg xmlns="http://www.w3.org/2000/svg" width="512" height="512"><path d="M217.066 345.043c-9.217 0-16.696 7.473-16.696 16.696v33.391c0 9.223 7.477 16.696 16.696 16.696 9.217 0 16.696-7.473 16.696-16.696v-33.391c-.001-9.223-7.479-16.696-16.696-16.696zm77.913 33.392c-9.217 0-16.696 7.473-16.696 16.696v33.391c0 9.223 7.479 16.696 16.696 16.696s16.696-7.473 16.696-16.696V395.13c-.001-9.222-7.479-16.695-16.696-16.695zm-77.913 66.782c-9.217 0-16.696 7.473-16.696 16.696v33.391c0 9.223 7.479 16.696 16.696 16.696 9.217 0 16.696-7.473 16.696-16.696v-33.391c-.001-9.223-7.479-16.696-16.696-16.696zm77.913-166.956c-9.217 0-16.696 7.473-16.696 16.696v33.391c0 9.223 7.479 16.696 16.696 16.696s16.696-7.473 16.696-16.696v-33.391c-.001-9.223-7.479-16.696-16.696-16.696z" fill="#ffcb01"/><path d="M395.13 178.087H116.87c-9.22 0-16.696 7.475-16.696 16.696v44.522c0 9.22 7.475 16.696 16.696 16.696h84.521c-.621 1.749-1.022 3.603-1.022 5.565v33.391c0 9.223 7.479 16.696 16.696 16.696s16.696-7.473 16.696-16.696v-33.391c0-1.962-.401-3.817-1.022-5.565H395.13c9.22 0 16.696-7.475 16.696-16.696v-44.522c0-9.221-7.475-16.696-16.696-16.696z" fill="#ffcb01"/><path d="M495.304 0h-66.783c-9.217 0-16.696 7.473-16.696 16.696v50.087H100.174V16.696C100.174 7.473 92.695 0 83.478 0H16.696C7.479 0 0 7.473 0 16.696v478.609C0 504.527 7.479 512 16.696 512h116.87V289.391H116.87c-27.619 0-50.087-22.468-50.087-50.087v-44.522c0-27.619 22.468-50.087 50.087-50.087h278.26c27.619 0 50.087 22.468 50.087 50.087v44.522c0 27.619-22.468 50.087-50.087 50.087h-16.696V512h116.87c9.217 0 16.696-7.473 16.696-16.696V16.696C512 7.473 504.521 0 495.304 0z" fill="#ffcb01"/></svg>