<svg xmlns="http://www.w3.org/2000/svg" height="512" viewBox="-49 1 511 511.999" width="512"><path d="M314.504 0H99.867C45.074 0 .5 44.574.5 99.367V216.5c0 17.285 14.062 31.348 31.352 31.348h7.18v148.629H375.34v-148.63h7.18c17.285 0 31.351-14.062 31.351-31.347V99.367C413.871 44.574 369.293 0 314.504 0zm69.36 216.5a1.35 1.35 0 0 1-1.344 1.344h-7.18v-50.606c0-19.16-15.594-34.75-34.754-34.75H73.78c-19.16 0-34.75 15.59-34.75 34.75v50.606h-7.18a1.346 1.346 0 0 1-1.343-1.344V99.367c0-38.246 31.113-69.36 69.36-69.36h214.636c38.242 0 69.36 31.114 69.36 69.36zM39.031 433.754c0 43.144 35.102 78.246 78.246 78.246h179.817c43.144 0 78.246-35.102 78.246-78.246v-7.27H39.03zm0 0" fill="#ffcb01"/><path d="M334.219 102.52l-1.852-7.434c-1.84-7.414-6.453-13.656-12.996-17.586-6.539-3.93-14.21-5.082-21.625-3.242l-21.754 5.422c-11.305 2.82-19.347 12.047-21.238 22.84zm-84.266 0c-.433-1.09-.906-2.168-1.476-3.215-3.653-6.7-9.696-11.582-17.008-13.73l-21.512-6.345c-15.105-4.449-31.02 4.223-35.469 19.336l-1.168 3.954zm-87.359 0c-1.414-14.442-13.621-25.758-28.418-25.758H105.43c-14.809 0-27.012 11.316-28.43 25.758zm0 0" fill="#ffcb01"/></svg>