<svg xmlns="http://www.w3.org/2000/svg" width="512" height="512" viewBox="0 0 550.801 550.801"><g fill="#fcb900"><path d="M252.63 250.539c-7.409 0-12.438.72-15.072 1.442v47.614c3.117.718 6.945.96 12.203.96 19.388 0 31.356-9.819 31.356-26.32 0-14.839-10.297-23.696-28.487-23.696z"/><path d="M488.426 197.019H475.2v-63.816c0-.398-.063-.799-.116-1.202-.021-2.534-.827-5.023-2.562-6.995L366.325 3.694c-.032-.031-.063-.042-.085-.076-.633-.707-1.371-1.295-2.151-1.804a9.495 9.495 0 0 0-.706-.419 11.131 11.131 0 0 0-2.131-.896c-.2-.056-.38-.138-.58-.19A10.774 10.774 0 0 0 358.193 0H97.2C85.282 0 75.6 9.693 75.6 21.601v175.413H62.377c-17.049 0-30.873 13.818-30.873 30.873v160.545c0 17.043 13.824 30.87 30.873 30.87h13.224V529.2c0 11.907 9.682 21.601 21.6 21.601h356.4c11.907 0 21.6-9.693 21.6-21.601V419.302h13.226c17.044 0 30.871-13.827 30.871-30.87v-160.54c-.001-17.054-13.828-30.873-30.872-30.873zM97.2 21.605h250.193v110.513c0 5.967 4.841 10.8 10.8 10.8H453.6v54.108H97.2V21.605zm220.04 251.667c0 15.791-5.264 29.191-14.829 38.293-12.451 11.723-30.876 16.98-52.402 16.98-4.788 0-9.102-.231-12.451-.712v57.665h-36.131V226.381c11.253-1.925 27.042-3.354 49.296-3.354 22.491 0 38.524 4.303 49.304 12.922 10.279 8.132 17.213 21.535 17.213 37.323zM87.033 384.302l4.076-29.431c5.028 1.677 11.48 2.879 18.658 2.879 15.325 0 24.888-6.95 24.888-32.072V224.219h36.368v101.934c0 45.947-22.02 61.973-57.428 61.973-8.368.005-19.379-1.419-26.562-3.824zm366.568 139.051H97.2V419.302h356.4v104.051zm21.588-145.268c-11.242 3.828-32.537 9.091-53.852 9.091-29.416 0-50.721-7.419-65.549-21.773-14.84-13.875-22.987-34.932-22.739-58.625.231-53.602 39.234-84.23 92.127-84.23 20.819 0 36.861 4.061 44.75 7.894l-7.657 29.191c-8.859-3.829-19.87-6.94-37.578-6.94-30.386 0-53.346 17.234-53.346 52.17 0 33.26 20.809 52.882 50.725 52.882 8.374 0 15.077-.96 17.945-2.399v-33.739h-24.891v-28.472h60.064v84.95z"/></g></svg>