<svg id="Layer_1" xmlns="http://www.w3.org/2000/svg" viewBox="0 0 512 512"><style>.st1{fill:#333}</style><path d="M4.1 185.1h126.1v309H4.1V512h144V167.1H4.1zM507.9 239c0-11.3-4.4-22-12.4-30s-18.7-12.5-30-12.5h-131c5.2-11.7 9.4-23.9 12.4-35.9 4.1-16.8 6.2-34.1 6.2-51.3V88.4c0-11.4-4.4-22-12.4-30-8-8.1-18.7-12.5-30.1-12.5s-22.1 4.4-30 12.5c-8.1 8-12.5 18.7-12.5 30 0 14.3-2.6 26.4-9 41.7-6 14.4-14.6 27.1-25.5 37.9-9.2 9.1-20 16.2-32 21.1-12 4.9-24.6 7.4-37.6 7.4v17.9c15.3 0 30.2-2.9 44.4-8.8 14.2-5.8 26.9-14.2 37.8-24.9 12.6-12.4 22.5-27.2 29.4-43.7 7.4-17.7 10.4-31.8 10.4-48.7 0-6.5 2.6-12.7 7.3-17.4 4.6-4.6 10.7-7.2 17.3-7.2s12.7 2.6 17.4 7.2c4.6 4.6 7.2 10.7 7.2 17.3v20.9c0 15.8-1.9 31.6-5.7 47-3.7 15.2-9.7 30.7-17.2 45l-6.9 13.1h160.2c6.6 0 12.7 2.6 17.4 7.2 4.6 4.6 7.2 10.8 7.2 17.4s-2.6 12.7-7.2 17.4c-4.6 4.6-10.8 7.2-17.4 7.2h-56.2v17.9h37.3c6.5 0 12.6 2.6 17.3 7.2 4.6 4.6 7.2 10.8 7.2 17.4s-2.6 12.7-7.2 17.4c-4.6 4.6-10.8 7.2-17.4 7.2h-37.2v17.9H428c6.6 0 12.7 2.6 17.4 7.2 4.6 4.6 7.2 10.8 7.2 17.4s-2.6 12.7-7.2 17.4c-4.6 4.6-10.8 7.2-17.4 7.2h-18.6v17.9h.1c6.5 0 12.6 2.6 17.3 7.2 4.6 4.6 7.2 10.8 7.2 17.4s-2.6 12.7-7.2 17.4c-4.6 4.6-10.8 7.2-17.4 7.2H163.9v17.9h245.4c11.4 0 22-4.4 30-12.4s12.4-18.7 12.4-30c0-10-3.4-19.4-9.7-27 5.9-2.1 11.3-5.5 15.8-10 8-8 12.5-18.7 12.5-30 0-10-3.4-19.4-9.7-27 5.9-2.1 11.3-5.5 15.8-10 8-8 12.4-18.7 12.4-30 0-9.9-3.4-19.3-9.6-26.9 6-2.1 11.5-5.5 16.1-10.1 8.2-8.1 12.6-18.8 12.6-30.2z" fill="#ffcb01"/><path class="st1" d="M94.3 464.7h17.9v17.9H94.3zM301.5 0h17.9v27.9h-17.9z"/><path transform="rotate(-45.001 363.162 35.76)" class="st1" d="M349.2 26.8h27.9v17.9h-27.9z"/><path class="st1" d="M371 79.4h27.9v17.9H371z"/><path transform="rotate(-45.001 257.849 35.751)" class="st1" d="M248.9 21.8h17.9v27.9h-17.9z"/><path class="st1" d="M222.1 79.4H250v17.9h-27.9zM4.2 167.1h17.9v144H4.2zm0 297.6h17.9v47.4H4.2z"/></svg>