<svg id="Layer_1" data-name="Layer 1" xmlns="http://www.w3.org/2000/svg" viewBox="0 0 576 576"><title>my_app_icon</title><rect width="576" height="576" rx="77" ry="77" style="fill:#1f78ea"/><path d="M289.38,287c-.72-19.45-1.44-43-1.44-66.51h-.72c-5,20.65-11.77,43.7-18,62.67l-19.69,63.15H220.95l-17.29-62.67c-5.28-19-10.8-42-14.65-63.15h-.48c-1,21.85-1.68,46.82-2.88,67L182.77,349H148.92l10.32-161.84H208l15.85,54c5,18.73,10.08,38.9,13.69,57.87h.72c4.56-18.73,10.08-40.1,15.37-58.11l17.29-53.79h47.78L327.56,349H291.78Z" transform="translate(-27 -27)" style="fill:#fff"/><path d="M393.11,349V282.7L342,187.14h41.78L400.31,226c5,11.77,8.4,20.41,12.49,31h.48c3.6-10.08,7.44-19.45,12.25-31l16.33-38.9h41.06L429.6,281.5V349Z" transform="translate(-27 -27)" style="fill:#fff"/><path d="M122.81,430.43l-7.35,22.27H106l24.05-70.8h11l24.16,70.8h-9.77l-7.56-22.27ZM146,423.29l-6.93-20.38c-1.58-4.62-2.63-8.82-3.68-12.92h-.21c-1.05,4.2-2.21,8.51-3.57,12.82l-6.93,20.48Z" transform="translate(-27 -27)" style="fill:#fff"/><path d="M175.64,382.74a105.91,105.91,0,0,1,17.54-1.37c9,0,15.65,2.1,19.85,5.88,3.89,3.36,6.2,8.51,6.2,14.81s-1.89,11.45-5.46,15.13c-4.83,5.15-12.71,7.77-21.64,7.77a31.45,31.45,0,0,1-7.35-.63V452.7h-9.14Zm9.14,34.14a30.64,30.64,0,0,0,7.56.74c11,0,17.75-5.36,17.75-15.13,0-9.35-6.62-13.87-16.7-13.87a38.37,38.37,0,0,0-8.61.74Z" transform="translate(-27 -27)" style="fill:#fff"/><path d="M231.52,382.74a105.91,105.91,0,0,1,17.54-1.37c9,0,15.65,2.1,19.85,5.88,3.89,3.36,6.2,8.51,6.2,14.81s-1.89,11.45-5.46,15.13C264.82,422.34,256.94,425,248,425a31.45,31.45,0,0,1-7.35-.63V452.7h-9.14Zm9.14,34.14a30.64,30.64,0,0,0,7.56.74c11,0,17.75-5.36,17.75-15.13,0-9.35-6.62-13.87-16.7-13.87a38.37,38.37,0,0,0-8.61.74Z" transform="translate(-27 -27)" style="fill:#fff"/><path d="M318.81,381.9v70.8h-9.14V381.9Z" transform="translate(-27 -27)" style="fill:#fff"/><path d="M384.25,450.39c-3.36,1.68-10.08,3.36-18.7,3.36-20,0-35-12.61-35-35.82,0-22.16,15-37.18,37-37.18,8.82,0,14.39,1.89,16.81,3.15l-2.21,7.46a33.3,33.3,0,0,0-14.29-2.94c-16.6,0-27.63,10.61-27.63,29.2,0,17.33,10,28.47,27.21,28.47,5.57,0,11.24-1.16,14.92-2.94Z" transform="translate(-27 -27)" style="fill:#fff"/><path d="M454,416.56c0,24.37-14.81,37.29-32.88,37.29-18.7,0-31.83-14.5-31.83-35.92,0-22.48,14-37.18,32.88-37.18C441.5,380.75,454,395.56,454,416.56Zm-54.94,1.16c0,15.13,8.19,28.68,22.58,28.68s22.69-13.34,22.69-29.41c0-14.08-7.35-28.78-22.58-28.78S399.06,402.17,399.06,417.72Z" transform="translate(-27 -27)" style="fill:#fff"/><path d="M465.87,452.7V381.9h10l22.69,35.82a200.37,200.37,0,0,1,12.71,23l.21-.11c-.84-9.45-1.05-18.07-1.05-29.1V381.9H519v70.8h-9.24l-22.48-35.92a224.85,224.85,0,0,1-13.23-23.63l-.32.11c.53,8.93.74,17.44.74,29.2V452.7Z" transform="translate(-27 -27)" style="fill:#fff"/></svg>