<svg xmlns="http://www.w3.org/2000/svg" viewBox="0 0 226.7 142.9"><path d="M73.4 48.2c7.8-13.1 22-21.8 38.2-21.8 15.8 0 29.7 8.2 37.5 20.6.1.1.2.2.2.4.2.3.4.7.6 1h19.3l7.8-6.3-3.2-6.6c-10.4 2.6-7.6 1.8-10.4 2.6-1.3-2.1-2.7-4.1-4.3-6V32c5.5-8.6 0 0 5.2-8.5l-5.3-5.1c-2.8 1.8-5.5 3.4-8.2 5.2-2-1.6-4-3.2-6.2-4.6l3-10c-6.7-3.1 0 0-6.9-3.2-6.2 7.8 0 .2-6.2 8-2.4-1-4.8-1.8-7.3-2.4l-.5-10.3-7.7-1-3.2 9.5c-1.3-.1-2.7-.1-4-.1-1.3 0-2.6 0-3.9.1h-.1c-3.4-9.5 0-.1-3.4-9.5-2.3.3-5.2.9-7.5 1.2l-.3 10.1c-2.6.7-5.1 1.5-7.6 2.5-5.8-7.6-.2-.3-5.9-7.9-6.9 3.2-.9.4-6.9 3.2l2.5 10c-.1.1-.2.1-.3.2-2 1.3-3.9 2.7-5.7 4.2L64 18.4l-5.4 5c5.2 8.5.5.5 5.6 8.8-1.5 1.9-2.9 3.8-4.2 5.8v.1c-10-2.3-.3-.1-10.3-2.4l-3.3 6.9 7.6 6h19.5c-.3-.2-.2-.3-.1-.4m0 46.5c7.8 13.1 22 21.8 38.2 21.8 15.8 0 29.7-8.2 37.5-20.6.1-.1.2-.2.2-.4.2-.3.4-.7.6-1h19.3l7.8 6.3-3.2 6.6c-10.4-2.6-7.6-1.8-10.4-2.6-1.3 2.1-2.7 4.1-4.3 6v.1c5.5 8.6 0 0 5.2 8.5l-5.3 5.1c-2.8-1.8-5.5-3.4-8.2-5.2-2 1.6-4 3.2-6.2 4.6l2.7 10.1c-6.7 3.1 0 0-6.9 3.2-6.2-7.8 0-.2-6.2-8-2.4 1-4.8 1.8-7.3 2.4l-.5 10.3-7.7 1-3.2-9.5c-1.3.1-2.7.1-4 .1-1.3 0-2.6 0-3.9-.1h-.1c-3.4 9.5 0 .1-3.4 9.5-2.3-.3-5.2-.9-7.5-1.2l-.3-10.1c-2.6-.7-5.1-1.5-7.6-2.5-5.8 7.6-.2.3-5.9 7.9-6.9-3.2-.9-.4-6.9-3.2l2.5-10c-.1-.1-.2-.1-.3-.2-2-1.3-3.9-2.7-5.7-4.2l-8.7 5.2-5.4-5c5.2-8.5.5-.5 5.6-8.8-1.5-1.9-2.9-3.8-4.2-5.8v-.1c-10 2.3-.3.1-10.3 2.4l-3.3-6.9 7.6-6h19.5c.1.2.1.2.2.3" fill-rule="evenodd" clip-rule="evenodd" fill="#ffcb01"/><path d="M212.4 73.4v-6.9h7.1v6.9h-7.1zm-6 14.1h6V77h.7l6.7 10.5h6.8v-.6l-7.4-9.8h2.2c1.3 0 2.3-.4 2.9-1.3.6-.8.9-1.8.9-3.1v-6.5c0-1.7-.3-2.9-1.1-3.5-.7-.6-1.9-.9-3.6-.9h-14.3v25.7zm-21 0h17.5v-4.6h-11.5v-6.2h9.2V72h-9.2v-5.6h11.1v-4.6h-17.2v25.7zm-22.4-21h6.8v21.1h5.8V66.5h6.8v-4.6H163v4.6zm-23.2 21h5.4v-9.8c0-1.2 0-2.6-.1-4s-.3-2.7-.5-3.9h.4l7.8 17.7h7.1V61.8h-5.4v9.7c0 1.2 0 2.6.1 4.1.1 1.5.2 2.8.5 4h-.4l-7.8-17.7h-7.1v25.6zm-21.2 0h17.5v-4.6h-11.5v-6.2h9.2V72h-9.2v-5.6h11.1v-4.6h-17.2v25.7zm-26.1-4.7c0 3.1 1.5 4.7 4.6 4.7h13c3 0 4.6-1.6 4.6-4.7v-5.7l-3.6-.3h-2.4v5.6H99V60.6h9.7v5.5h2.4l3.6-.2v-5.7c0-3.1-1.5-4.6-4.6-4.7h-13c-3.1 0-4.6 1.6-4.6 4.7v22.6zm-19.2 4.7h16.4v-4.6H79.3V61.8h-6v25.7zm-18.7-4.6V66.5h7.9v16.4h-7.9zm-5.9.3c0 2.9 1.4 4.3 4.1 4.3h11.6c2.8 0 4.2-1.4 4.2-4.3V66.1c0-2.8-1.4-4.2-4.1-4.2H52.8c-2.8 0-4.2 1.5-4.1 4.4v16.9zm-18.6-.3V66.5H38v16.4h-7.9zm-6 .3c0 2.9 1.4 4.3 4.1 4.3h11.6c2.8 0 4.2-1.4 4.2-4.3V66.1c0-2.8-1.4-4.2-4.1-4.2H28.2c-2.8 0-4.2 1.5-4.1 4.4v16.9zM0 60.8h7.8v26.7h6.3V60.8h7.8v-5.4H0v5.4z" fill="#232323"/></svg>