<svg xmlns="http://www.w3.org/2000/svg" viewBox="0 0 512 512"><linearGradient id="a" gradientUnits="userSpaceOnUse" x1="535.197" y1="288.057" x2="-12.803" y2="282.057" gradientTransform="matrix(1 0 0 -1 0 514)"><stop offset="0" stop-color="#ffddb0"/><stop offset="1" stop-color="#ffcb01"/></linearGradient><path d="M492 32H20C9 32 0 41 0 52v354c0 11 9 20 20 20h187c5.5 0 10-4.5 10-10s-4.5-10-10-10H20V52h472v354h-75c-5.5 0-10 4.5-10 10s4.5 10 10 10h75c11 0 20-9 20-20V52c0-11-9-20-20-20z" fill="url(#a)"/><linearGradient id="b" gradientUnits="userSpaceOnUse" x1="537.242" y1="101.189" x2="-10.758" y2="95.189" gradientTransform="matrix(1 0 0 -1 0 514)"><stop offset="0" stop-color="#ffddb0"/><stop offset="1" stop-color="#ffcb01"/></linearGradient><path d="M253.1 408.9c-1.9-1.9-4.4-2.9-7.1-2.9s-5.2 1.1-7.1 2.9-2.9 4.4-2.9 7.1 1.1 5.2 2.9 7.1c1.9 1.9 4.4 2.9 7.1 2.9s5.2-1.1 7.1-2.9c1.9-1.9 2.9-4.4 2.9-7.1s-1.1-5.2-2.9-7.1z" fill="url(#b)"/><linearGradient id="c" gradientUnits="userSpaceOnUse" x1="535.73" y1="239.343" x2="-12.27" y2="233.343" gradientTransform="matrix(1 0 0 -1 0 514)"><stop offset="0" stop-color="#ffddb0"/><stop offset="1" stop-color="#ffcb01"/></linearGradient><path d="M458 116c-16.5 0-30-13.5-30-30 0-5.5-4.5-10-10-10H94c-5.5 0-10 4.5-10 10 0 16.5-13.5 30-30 30-5.5 0-10 4.5-10 10v206c0 5.5 4.5 10 10 10 16.5 0 30 13.5 30 30 0 5.5 4.5 10 10 10h184.1v88c0 3.7 2 7.1 5.3 8.8 3.3 1.7 7.2 1.5 10.3-.6l38.4-26.2 38.3 26.2c1.7 1.2 3.7 1.7 5.6 1.7 1.6 0 3.2-.4 4.7-1.2 3.3-1.7 5.3-5.1 5.3-8.8v-88.2c.6.1 1.3.2 1.9.2h30c5.5 0 10-4.5 10-10 0-16.5 13.5-30 30-30 5.5 0 10-4.5 10-10V126c.1-5.5-4.4-10-9.9-10zm-91.9 335.1l-23.9-16.3v-28.2c0-5.5-4.5-10-10-10s-10 4.5-10 10v28.2l-24.1 16.4v-75.9c2.3 1.9 4.8 3.5 7.6 4.6 7.3 3 15.6 2.9 22.8-.4 2.3-1 4.9-1 7.2 0 3.8 1.7 7.8 2.6 11.9 2.6 3.7 0 7.5-.7 11-2.2 2.8-1.1 5.3-2.7 7.6-4.6v75.8h-.1zm11.2-123.2c1 2.2 1 4.7.1 6.9s-2.7 4-5 4.8c-7.8 2.9-13.9 9-16.8 16.8-.9 2.3-2.6 4-4.8 5-2.2.9-4.7.9-6.9-.1-7.5-3.4-16.2-3.4-23.7 0-2.2 1-4.7 1-6.9.1s-4-2.7-4.8-5c-2.9-7.8-9-13.9-16.8-16.8-2.3-.9-4-2.6-5-4.8-.9-2.2-.9-4.7.1-6.9 3.4-7.5 3.4-16.2 0-23.7-1-2.2-1-4.7-.1-6.9s2.7-4 5-4.8c7.8-2.9 13.9-9 16.8-16.8.9-2.3 2.6-4 4.8-5 1.1-.4 2.2-.7 3.3-.7 1.2 0 2.4.3 3.6.8 7.5 3.4 16.2 3.4 23.7 0 2.2-1 4.7-1 6.9-.1s4 2.7 4.8 5c2.9 7.8 9 13.9 16.8 16.8 2.3.9 4 2.6 5 4.8.9 2.2.9 4.7-.1 6.9-3.4 7.5-3.4 16.1 0 23.7zM448 323c-19.6 4-35 19.4-39 39h-21c-.7 0-1.3.1-1.9.2v-7.4c4.3-3.1 7.8-7.4 9.8-12.3 3-7.3 2.9-15.6-.4-22.8-1-2.3-1-4.9 0-7.2 3.3-7.2 3.4-15.5.4-22.8s-9-13.1-16.4-15.9c-2.3-.9-4.2-2.7-5.1-5.1-2.8-7.4-8.6-13.4-15.9-16.4s-15.6-2.9-22.8.4c-2.3 1-4.9 1-7.2 0-7.2-3.3-15.5-3.4-22.8-.4s-13.1 9-15.9 16.4c-.9 2.3-2.7 4.2-5.1 5.1-7.4 2.8-13.4 8.6-16.4 15.9s-2.9 15.6.4 22.8c1 2.3 1 4.9 0 7.2-3.3 7.2-3.4 15.5-.4 22.8 2.1 5 5.5 9.2 9.8 12.3v7.2H103c-4-19.6-19.4-35-39-39V135c19.6-4 35-19.4 39-39h306c4 19.6 19.4 35 39 39v188z" fill="url(#c)"/><linearGradient id="d" gradientUnits="userSpaceOnUse" x1="536.786" y1="142.863" x2="-11.214" y2="136.863" gradientTransform="matrix(1 0 0 -1 0 514)"><stop offset="0" stop-color="#ffddb0"/><stop offset="1" stop-color="#ffcb01"/></linearGradient><path d="M465.1 364.9c-1.9-1.9-4.4-2.9-7.1-2.9s-5.2 1.1-7.1 2.9c-1.9 1.9-2.9 4.4-2.9 7.1s1.1 5.2 2.9 7.1c1.9 1.9 4.4 2.9 7.1 2.9s5.2-1.1 7.1-2.9c1.9-1.9 2.9-4.4 2.9-7.1s-1.1-5.2-2.9-7.1z" fill="url(#d)"/><linearGradient id="e" gradientUnits="userSpaceOnUse" x1="533.655" y1="428.828" x2="-14.345" y2="422.828" gradientTransform="matrix(1 0 0 -1 0 514)"><stop offset="0" stop-color="#ffddb0"/><stop offset="1" stop-color="#ffcb01"/></linearGradient><path d="M465.1 78.9c-1.9-1.9-4.4-2.9-7.1-2.9s-5.2 1.1-7.1 2.9c-1.9 1.9-2.9 4.4-2.9 7.1s1.1 5.2 2.9 7.1 4.4 2.9 7.1 2.9 5.2-1.1 7.1-2.9c1.9-1.9 2.9-4.4 2.9-7.1s-1.1-5.2-2.9-7.1z" fill="url(#e)"/><linearGradient id="f" gradientUnits="userSpaceOnUse" x1="533.607" y1="433.251" x2="-14.393" y2="427.251" gradientTransform="matrix(1 0 0 -1 0 514)"><stop offset="0" stop-color="#ffddb0"/><stop offset="1" stop-color="#ffcb01"/></linearGradient><path d="M61.1 78.9C59.2 77.1 56.6 76 54 76s-5.2 1.1-7.1 2.9C45.1 80.8 44 83.4 44 86s1.1 5.2 2.9 7.1S51.4 96 54 96s5.2-1.1 7.1-2.9C63 91.2 64 88.7 64 86s-1.1-5.2-2.9-7.1z" fill="url(#f)"/><linearGradient id="g" gradientUnits="userSpaceOnUse" x1="536.738" y1="147.286" x2="-11.262" y2="141.285" gradientTransform="matrix(1 0 0 -1 0 514)"><stop offset="0" stop-color="#ffddb0"/><stop offset="1" stop-color="#ffcb01"/></linearGradient><path d="M61.1 364.9c-1.9-1.9-4.4-2.9-7.1-2.9s-5.2 1.1-7.1 2.9-2.9 4.5-2.9 7.1 1.1 5.2 2.9 7.1c1.9 1.9 4.4 2.9 7.1 2.9s5.2-1.1 7.1-2.9c1.9-1.9 2.9-4.4 2.9-7.1s-1.1-5.2-2.9-7.1z" fill="url(#g)"/><linearGradient id="h" gradientUnits="userSpaceOnUse" x1="534.389" y1="361.844" x2="-13.611" y2="355.844" gradientTransform="matrix(1 0 0 -1 0 514)"><stop offset="0" stop-color="#ffddb0"/><stop offset="1" stop-color="#ffcb01"/></linearGradient><path d="M373.1 146.9c-1.9-1.9-4.4-2.9-7.1-2.9s-5.2 1.1-7.1 2.9c-1.9 1.9-2.9 4.4-2.9 7.1s1.1 5.2 2.9 7.1 4.4 2.9 7.1 2.9 5.2-1.1 7.1-2.9c1.9-1.9 2.9-4.4 2.9-7.1s-1.1-5.2-2.9-7.1z" fill="url(#h)"/><linearGradient id="i" gradientUnits="userSpaceOnUse" x1="534.371" y1="363.433" x2="-13.629" y2="357.433" gradientTransform="matrix(1 0 0 -1 0 514)"><stop offset="0" stop-color="#ffddb0"/><stop offset="1" stop-color="#ffcb01"/></linearGradient><path d="M327.7 144H114c-5.5 0-10 4.5-10 10s4.5 10 10 10h213.7c5.5 0 10-4.5 10-10s-4.5-10-10-10z" fill="url(#i)"/><linearGradient id="j" gradientUnits="userSpaceOnUse" x1="534.899" y1="315.229" x2="-13.101" y2="309.229" gradientTransform="matrix(1 0 0 -1 0 514)"><stop offset="0" stop-color="#ffddb0"/><stop offset="1" stop-color="#ffcb01"/></linearGradient><path d="M366 192H114c-5.5 0-10 4.5-10 10s4.5 10 10 10h252c5.5 0 10-4.5 10-10s-4.5-10-10-10z" fill="url(#j)"/><linearGradient id="k" gradientUnits="userSpaceOnUse" x1="536.158" y1="200.234" x2="-11.842" y2="194.234" gradientTransform="matrix(1 0 0 -1 0 514)"><stop offset="0" stop-color="#ffddb0"/><stop offset="1" stop-color="#ffcb01"/></linearGradient><path d="M332.1 287c-16 0-29 13-29 29s13 29 29 29 29-13 29-29-13-29-29-29zm0 38c-5 0-9-4-9-9s4-9 9-9 9 4 9 9-4 9-9 9z" fill="url(#k)"/><linearGradient id="l" gradientUnits="userSpaceOnUse" x1="535.779" y1="234.851" x2="-12.221" y2="228.851" gradientTransform="matrix(1 0 0 -1 0 514)"><stop offset="0" stop-color="#ffddb0"/><stop offset="1" stop-color="#ffcb01"/></linearGradient><path d="M200.1 263.2c-3.9-3.9-10.2-3.9-14.1 0l-20 19.9-20.7-20.7c-1.9-1.9-4.4-2.9-7.1-2.9s-5.2 1.1-7.1 2.9l-24.3 24.3c-3.9 3.9-3.9 10.2 0 14.1s10.2 3.9 14.1 0l17.2-17.2 20.7 20.7c1.9 1.9 4.4 2.9 7.1 2.9s5.2-1.1 7.1-2.9l27-27c4-3.9 4-10.2.1-14.1z" fill="url(#l)"/><linearGradient id="m" gradientUnits="userSpaceOnUse" x1="535.939" y1="220.236" x2="-12.061" y2="214.236" gradientTransform="matrix(1 0 0 -1 0 514)"><stop offset="0" stop-color="#ffddb0"/><stop offset="1" stop-color="#ffcb01"/></linearGradient><path d="M220.1 290.2c-1.9-1.9-4.4-2.9-7.1-2.9s-5.2 1.1-7.1 2.9-2.9 4.4-2.9 7.1 1.1 5.2 2.9 7.1c1.9 1.9 4.4 2.9 7.1 2.9s5.2-1.1 7.1-2.9c1.9-1.9 2.9-4.4 2.9-7.1s-1.1-5.3-2.9-7.1z" fill="url(#m)"/></svg>