<svg xmlns="http://www.w3.org/2000/svg" viewBox="0 0 488.742 488.742" width="512" height="512"><g fill="#FFF"><path d="M228.758 366.344c0 5.008-4.063 9.075-9.086 9.075H54.758c-5.022 0-9.087-4.067-9.087-9.075V113.056c0-5.017 4.064-9.078 9.087-9.078h164.914c5.022 0 9.086 4.062 9.086 9.078v9.896l43.191-43.19c-5.547-15.517-20.224-26.684-37.657-26.684H40.136C17.962 53.078 0 71.046 0 93.214v325.899c0 22.165 17.962 40.135 40.136 40.135h194.156c22.174 0 40.137-17.97 40.137-40.135v-84.802l-45.671-45.659v77.692zM100.166 437.29H58.999c-9.098 0-16.463-7.373-16.463-16.469 0-9.092 7.365-16.465 16.463-16.465h41.167c9.103 0 16.468 7.373 16.468 16.465 0 9.096-7.366 16.469-16.468 16.469zm115.265 0h-41.166c-9.105 0-16.469-7.373-16.469-16.469 0-9.092 7.363-16.465 16.469-16.465h41.166c9.097 0 16.463 7.373 16.463 16.465-.001 9.096-7.367 16.469-16.463 16.469z"/><path d="M197.85 205.799c0 3.432 1.369 6.729 3.797 9.166l20.646 20.646L403.968 53.943l-20.647-20.646a12.94 12.94 0 0 0-9.167-3.802 12.944 12.944 0 0 0-9.166 3.794L201.647 196.633a12.994 12.994 0 0 0-3.797 9.166zm287.102-70.874L434.137 84.11 252.46 265.777l50.817 50.813a12.892 12.892 0 0 0 9.16 3.796c3.318 0 6.647-1.263 9.167-3.796l163.348-163.333a12.994 12.994 0 0 0 3.79-9.166c0-3.435-1.363-6.73-3.79-9.166z"/></g></svg>