<svg xmlns="http://www.w3.org/2000/svg" viewBox="0 0 480.698 480.698"><path d="M185.561 179.755c-8.7-8.7-22.7-8.7-31.3 0-8.7 8.7-8.7 22.7 0 31.3s22.7 8.6 31.3 0c8.7-8.7 8.7-22.7 0-31.3zm109.6 89.9c-8.7 8.6-8.6 22.7 0 31.3 8.6 8.7 22.7 8.7 31.3 0 8.7-8.6 8.7-22.7 0-31.3-8.7-8.6-22.7-8.6-31.3 0z"/><path d="M410.361 70.355c-93.9-93.8-246.1-93.8-340 0-90.3 90.4-93.7 234.8-10.1 329.2l2.4 2c-9.1 19.6-24.7 43.8-49.5 56-8.2 4-6.3 16.2 2.7 17.6 27.1 4.2 66-.5 102.2-27.9l.5.4c92.1 54.2 212.6 41.7 291.7-37.4 93.9-93.8 93.9-246 .1-339.9zm-293.8 125c0-29.4 24-53.4 53.4-53.4s53.4 24 53.4 53.4-24 53.4-53.4 53.4c-29.5 0-53.3-23.9-53.4-53.4zm63.7 137.9c-4.6 5.5-12.8 6.3-18.3 1.7s-6.3-12.8-1.7-18.3l140.2-168.8c4.6-5.5 12.8-6.3 18.3-1.7s6.3 12.8 1.7 18.3l-140.2 168.8zm130.5 5.5c-29.4 0-53.4-24-53.4-53.4s24-53.4 53.4-53.4 53.4 24 53.4 53.4-23.9 53.4-53.4 53.4z"/></svg>