<svg xmlns="http://www.w3.org/2000/svg" width="512" height="512" viewBox="0 0 906.833 906.833"><g fill="#ffcb01"><path d="M437.174 594.033c-22.524-13.367-43.24-29.658-61.704-48.554-20.89-21.378-38.236-45.272-51.816-71.297l-31.163 31.163c-6.555 6.555-17.184 6.555-23.738 0l-.24-.24c-6.555-6.556-17.184-6.556-23.739 0l-24.439 24.439-20.7-20.7c-4.821-4.821-12.638-4.821-17.459 0l-40.987 40.987c-4.821 4.821-4.821 12.638 0 17.459l20.7 20.7L12.606 737.273c-6.556 6.556-6.556 17.185 0 23.739l140.903 140.904c6.555 6.555 17.184 6.555 23.739 0L409.416 669.75c6.555-6.556 6.555-17.185 0-23.739l-.24-.24c-6.555-6.555-6.555-17.184 0-23.738l27.998-28zM101.36 751.104a12.465 12.465 0 0 1-8.839-3.661c-4.882-4.882-4.882-12.796 0-17.678l58.949-58.949c4.881-4.881 12.797-4.881 17.678 0 4.882 4.883 4.882 12.796 0 17.679l-58.949 58.948a12.46 12.46 0 0 1-8.839 3.661zm46.118 33.618c-2.44 2.44-5.64 3.661-8.839 3.661s-6.398-1.221-8.839-3.661c-4.882-4.882-4.882-12.796 0-17.678l58.948-58.948c4.881-4.881 12.797-4.881 17.678 0 4.882 4.882 4.882 12.796 0 17.678l-58.948 58.948zm96.226-21.67L184.756 822a12.467 12.467 0 0 1-8.839 3.661 12.469 12.469 0 0 1-8.839-3.661c-4.882-4.882-4.882-12.796 0-17.679l58.948-58.947c4.881-4.881 12.797-4.881 17.678 0 4.882 4.882 4.882 12.796 0 17.678zm603.98-519.771L498.258 592.709a43.102 43.102 0 0 1-4.422 3.848l21.836 41.894c3.316 6.365 11.861 7.68 16.939 2.603l363.418-363.419c5.076-5.077 3.764-13.622-2.602-16.94l-41.893-21.834a43.487 43.487 0 0 1-3.85 4.42z"/><path d="M459.629 578.032a17.863 17.863 0 0 0 8.486 2.149c4.566 0 9.072-1.758 12.465-5.149l349.426-349.428c5.48-5.48 6.789-13.921 3.113-20.745-12.422-23.062-28.355-44.731-47.83-64.204-53.803-53.803-124.312-80.703-194.83-80.701a276.706 276.706 0 0 0-61.725 6.987l-10.408-10.406-10.144-10.145-9.143-9.144c-49.663-49.662-130.182-49.662-179.844 0l-26.976 26.977c-37.764 37.764-46.803 93.368-27.134 139.681L91.671 377.318c-6.507 6.508-6.507 17.058 0 23.564l25.898 25.897c6.507 6.508 17.057 6.508 23.564 0l155.458-155.458 11.443-11.444 3.301 3.3 10.391 10.391c-13.995 60.608-7.183 124.99 20.543 181.999 12.664 26.039 29.684 50.542 51.082 72.439 18.834 19.274 39.79 35.174 62.12 47.729 1.381.779 2.765 1.545 4.158 2.297z"/></g></svg>