<svg xmlns="http://www.w3.org/2000/svg" width="512" height="512" viewBox="0 0 940.287 940.287"><g fill="#ffcb01"><path d="M415.921 494.496c-3.931-3.227-9.67-2.932-13.267.664L250.458 647.357c-2.84 2.84-.337 7.715 3.609 6.969 15.287-2.885 41.985-18.76 49.337-12.986 9.564 7.512-7.672 53.611 2.535 59.791 10.375 6.283 43.242-30.375 54.151-25.467 11.037 4.965 5.41 53.859 16.857 57.416 11.535 3.584 34.627-39.898 46.441-37.742 11.864 2.162 18.11 50.99 30.115 51.713 12.021.723 24.078-47.006 36.099-47.729 12.004-.723 29.699 45.219 41.562 43.057 11.814-2.154 12.141-51.375 23.676-54.959 11.449-3.557 39.625 36.816 50.662 31.854 10.908-4.908-.607-52.758 9.768-59.039 10.207-6.182 47.275 26.225 56.838 18.711 9.357-7.35-13.295-51.043-4.67-59.668 8.623-8.623 52.318 14.029 59.668 4.672 7.512-9.564-24.895-46.633-18.713-56.838 6.283-10.375 54.131 1.143 59.039-9.768 4.965-11.035-35.41-39.215-31.852-50.662 3.584-11.533 52.803-11.859 54.959-23.674 2.162-11.863-43.779-29.558-43.057-41.563.723-12.021 48.451-24.078 47.729-36.1-.723-12.005-49.549-18.251-51.711-30.114-2.154-11.814 41.326-34.906 37.742-46.441-3.557-11.448-52.451-5.822-57.416-16.859-4.906-10.909 31.75-43.776 25.469-54.152-6.182-10.206-52.279 7.029-59.791-2.535-5.775-7.352 10.1-34.05 12.984-49.337.746-3.947-4.129-6.449-6.969-3.609L543.322 354.493c-3.596 3.596-3.891 9.336-.664 13.266 29.047 35.374 27.049 87.703-5.992 120.746-33.041 33.04-85.371 35.038-120.745 5.991z"/><path d="M105.974 469.35l-76.356 76.357C10.173 565.152.324 590.545.029 616.029H.001v156.383h176.561v-87.639L323.505 537.83a101.586 101.586 0 0 0 9.651-11.18l465.18-465.178c4.457-4.458 4.457-11.686 0-16.144l-29.002-29.001c-2.229-2.229-5.15-3.344-8.072-3.344s-5.842 1.115-8.072 3.344l-80.2 80.198C606.965 41.357 524.5 13.057 442.635 13.057c-90.203 0-179.674 34.365-245.595 105.016-95.065 101.883-125.188 235.53-91.066 351.277zM86.046 649.191c-17.396 0-31.498-14.104-31.498-31.498 0-17.396 14.102-31.498 31.498-31.498s31.498 14.102 31.498 31.498c0 17.395-14.102 31.498-31.498 31.498zm232.038-402.646c56.875-56.875 146.819-60.524 207.937-10.947 6.82 5.532 7.318 15.774 1.109 21.983L486.012 298.7c-31.508-11.649-68.717-4.499-94.496 21.279s-32.928 62.987-21.279 94.496l-41.118 41.118c-6.209 6.209-16.45 5.712-21.982-1.107-49.577-61.121-45.928-151.067 10.947-207.941zm556.041 680.76h56.105c5.555 0 10.057-4.502 10.057-10.057V807.471c0-5.555-4.502-10.057-10.057-10.057H0v119.834c0 5.553 4.503 10.057 10.057 10.057h56.107c5.554 0 10.057-4.504 10.057-10.057v-19.32c83.915 15.975 228.999 26.533 393.923 26.533s310.008-10.559 393.922-26.533v19.32c0 5.555 4.504 10.057 10.059 10.057z"/></g></svg>