<svg xmlns="http://www.w3.org/2000/svg" viewBox="0 0 512 512"><linearGradient id="a" gradientUnits="userSpaceOnUse" x1="539.42" y1="168.788" x2="-34.58" y2="172.788" gradientTransform="matrix(1 0 0 -1 0 514)"><stop offset="0" stop-color="#ffddb0"/><stop offset="1" stop-color="#ffcb01"/></linearGradient><path d="M349.5 335.6c-4.5-3.2-10.8-2-13.9 2.5 0 .1-.1.1-.1.2-3 4.5-1.9 10.7 2.6 13.8 1.7 1.2 3.7 1.8 5.7 1.8 3.2 0 6.3-1.5 8.2-4.3 0-.1.1-.1.1-.2 3-4.5 1.8-10.6-2.6-13.8z" fill="url(#a)"/><linearGradient id="b" gradientUnits="userSpaceOnUse" x1="540.026" y1="255.7" x2="-33.974" y2="259.7" gradientTransform="matrix(1 0 0 -1 0 514)"><stop offset="0" stop-color="#ffddb0"/><stop offset="1" stop-color="#ffcb01"/></linearGradient><path d="M352.1 162.8C320.5 114.7 267.4 86 209.9 86c-93.8 0-170 76.3-170 170s76.3 170 170 170c44 0 85.7-16.8 117.5-47.2 4-3.8 4.1-10.1.3-14.1s-10.1-4.1-14.1-.3c-28 26.8-64.9 41.6-103.7 41.6-82.7 0-150-67.3-150-150s67.3-150 150-150c50.7 0 97.6 25.3 125.4 67.7 3 4.6 9.2 5.9 13.9 2.9 4.7-3 5.9-9.2 2.9-13.8z" fill="url(#b)"/><linearGradient id="c" gradientUnits="userSpaceOnUse" x1="540.026" y1="255.754" x2="-33.974" y2="259.754" gradientTransform="matrix(1 0 0 -1 0 514)"><stop offset="0" stop-color="#ffddb0"/><stop offset="1" stop-color="#ffcb01"/></linearGradient><path d="M378.4 364.5c-4.5-3.2-10.7-2.2-14 2.3-6 8.4-12.8 16.4-20.1 23.6-74.1 74.1-194.7 74.1-268.8 0s-74.1-194.7 0-268.8c72.7-72.7 192-73.9 266-2.7 4 3.8 10.3 3.7 14.1-.3s3.7-10.3-.3-14.1c-39.6-38.2-92-59-147.3-58.5-55.4.5-107.4 22.4-146.6 61.5-81.9 81.9-81.9 215.1 0 297 40.9 40.9 94.7 61.4 148.5 61.4s107.6-20.5 148.5-61.4c8.1-8.1 15.5-16.8 22.2-26.1 3.3-4.4 2.2-10.7-2.2-13.9z" fill="url(#c)"/><linearGradient id="d" gradientUnits="userSpaceOnUse" x1="540.847" y1="373.527" x2="-33.153" y2="377.527" gradientTransform="matrix(1 0 0 -1 0 514)"><stop offset="0" stop-color="#ffddb0"/><stop offset="1" stop-color="#ffcb01"/></linearGradient><path d="M380.6 133.6l-.3-.4c-3.3-4.5-9.5-5.4-14-2.2-4.5 3.3-5.5 9.5-2.2 14l.2.3c2 2.7 5 4.2 8.1 4.2 2 0 4.1-.6 5.8-1.9 4.6-3.2 5.7-9.5 2.4-14z" fill="url(#d)"/><linearGradient id="e" gradientUnits="userSpaceOnUse" x1="540.012" y1="253.7" x2="-33.988" y2="257.7"><stop offset="0" stop-color="#ffddb0"/><stop offset="1" stop-color="#ffcb01"/></linearGradient><path d="M468.3 256l40.7-41c2.9-2.9 3.7-7.2 2.1-10.9-1.5-3.7-5.2-6.2-9.2-6.2H391.2c-2.6 0-5.2 1-7.1 2.9L338.8 246h-7.3c-5.1-62.6-57.7-112-121.6-112-67.3 0-122 54.7-122 122s54.7 122 122 122c63.9 0 116.5-49.4 121.6-112h7.3l45.4 45.1c1.9 1.9 4.4 2.9 7.1 2.9H502c4 0 7.7-2.4 9.2-6.2 1.6-3.7.7-8-2.1-10.9L468.3 256zm-258.4 10H267c-4.8 27.2-28.6 48-57.1 48-32 0-58-26-58-58s26-58 58-58c28.6 0 52.4 20.8 57.1 48h-57.1c-5.5 0-10 4.5-10 10 0 5.6 4.5 10 10 10zm0-88c-43 0-78 35-78 78s35 78 78 78c39.6 0 72.4-29.7 77.4-68h24.2c-5 51.6-48.6 92-101.5 92-56.3 0-102-45.8-102-102s45.8-102 102-102c52.9 0 96.5 40.4 101.5 92h-24.2c-4.9-38.3-37.7-68-77.4-68zm242.2 40h25.8L450 246h-25.8l27.9-28zm-56.7 76.1l-28.2-28h28.9l27.9 28h-28.6zm.7-48.1h-28.9l28.2-28H424l-27.9 28zm56 48.1l-27.9-28H450l27.9 28h-25.8z" fill="url(#e)"/><linearGradient id="f" gradientUnits="userSpaceOnUse" x1="541.319" y1="441.312" x2="-32.681" y2="445.312" gradientTransform="matrix(1 0 0 -1 0 514)"><stop offset="0" stop-color="#ffddb0"/><stop offset="1" stop-color="#ffcb01"/></linearGradient><path d="M451.7 53.8c-3.9-3.9-10.2-3.9-14.1 0L415.4 76c-3.9 3.9-3.9 10.2 0 14.1 2 2 4.5 2.9 7.1 2.9s5.1-1 7.1-2.9l22.2-22.2c3.8-3.9 3.8-10.2-.1-14.1z" fill="url(#f)"/><linearGradient id="g" gradientUnits="userSpaceOnUse" x1="538.922" y1="97.241" x2="-35.078" y2="101.241" gradientTransform="matrix(1 0 0 -1 0 514)"><stop offset="0" stop-color="#ffddb0"/><stop offset="1" stop-color="#ffcb01"/></linearGradient><path d="M451.6 418.2l-18.4-18.4c-3.9-3.9-10.2-3.9-14.1 0s-3.9 10.2 0 14.1l18.4 18.4c2 2 4.5 2.9 7.1 2.9s5.1-1 7.1-2.9c3.8-3.9 3.8-10.2-.1-14.1z" fill="url(#g)"/></svg>