<svg xmlns="http://www.w3.org/2000/svg" width="512" height="512" viewBox="0 0 34.545 34.545"><path d="M34.371 13.114c-.043.217-.045.441-.129.646-.498 1.202-1.429 2.197-2.116 3.305-.885 1.414-8.404-1.633-7.435-3.521.365-.698 1.788-2.626 1.896-3.401.098-.691-.818-1.233-1.664-1.303-2.231-.18-5.084-.017-7.453-.002v.002l-.197-.001-.197.001v-.002c-2.37-.015-5.221-.178-7.453.002-.846.07-1.762.612-1.664 1.304.107.775 1.531 2.703 1.896 3.401.971 1.888-6.551 4.935-7.436 3.521-.688-1.107-1.617-2.103-2.115-3.305-.084-.205-.087-.43-.13-.646-1.103-4.93 3.149-9.96 9.551-10.475a115.61 115.61 0 0 1 7.351-.354v-.014c.066.002.131.006.197.007.066-.001.131-.005.197-.007v.013c2.453.044 4.904.155 7.35.354 6.403.515 10.655 5.547 9.551 10.475zm-4.396 17.01c.069 1.183-.703 2.148-1.723 2.148H6.293c-1.017 0-1.792-.967-1.722-2.148l.641-10.783c2.327-.545 5.301-1.969 6.38-3.737.601-.985.665-2.094.171-3.055-.125-.24-.359-.615-.628-1.033l-.001-.002-.014-.032h11.953l-.018.044c-.15.361-.201.638-.173.847-.034.061-.082.138-.108.188-.488.948-.424 2.058.177 3.042 1.079 1.77 4.051 3.191 6.378 3.736l.646 10.785zm-8.502-11.192a5.908 5.908 0 0 0-8.346 0 5.907 5.907 0 0 0 0 8.345c2.083 2.083 5.345 2.273 7.651.586l-1.443-1.441a3.898 3.898 0 0 1-4.794-.559 3.905 3.905 0 0 1 .001-5.517 3.906 3.906 0 0 1 5.517 0 3.895 3.895 0 0 1 .568 4.772l1.445 1.445c1.674-2.306 1.477-5.554-.599-7.631z" fill="#ffcb01"/></svg>