<svg xmlns="http://www.w3.org/2000/svg" height="512" width="512"><g stroke="#FFF" fill="#FFF"><path d="M120 107c0-8.29 6.71-15 15-15 8.277 0 15-6.723 15-15 0-8.29 6.71-15 15-15h122c8.29 0 15 6.71 15 15 0 8.277 6.723 15 15 15 8.29 0 15 6.71 15 15v76.738c11.059 2.348 21.262 7.032 30 13.645V15c0-8.285-6.715-15-15-15H105c-8.285 0-15 6.715-15 15v167h30zm0 0"/><path d="M274.563 92h-97.125c-4.528 12.773-14.665 22.91-27.438 27.438V182h152v-62.563c-12.773-4.527-22.91-14.664-27.438-27.437zM227 152.027c-8.285 0-15-6.714-15-15 0-8.285 6.715-15 15-15s15 6.715 15 15c0 8.286-6.715 15-15 15zM512 242c0-16.57-13.43-30-30-30h-30v-45c0-24.852-20.148-45-45-45h-15v150h90c16.57 0 30-13.43 30-30zM392 482h15c24.852 0 45-20.148 45-45v-15h-60zm120-188.344c-8.86 5.168-19.023 8.344-30 8.344H317c-24.852 0-45 20.148-45 45s20.148 45 45 45h150c24.852 0 45-20.148 45-45zM316.973 362c-8.286 0-15-6.715-15-15s6.714-15 15-15c8.285 0 15 6.715 15 15s-6.715 15-15 15zM30 182h30v-60H30c-16.57 0-30 13.43-30 30s13.43 30 30 30zm0 0"/><path d="M75 512h242c24.813 0 45-20.188 45-45v-45h-45c-41.352 0-75-33.648-75-75s33.648-75 75-75h45v-15c0-24.813-20.188-45-45-45H30c-10.977 0-21.14-3.176-30-8.344V437c0 41.352 33.648 75 75 75zm0 0"/></g></svg>