<svg xmlns="http://www.w3.org/2000/svg" width="1240" height="1240"><path d="M39 550.479v13.479l19.75.271 19.75.271.257 68.25.257 68.25H111V564h40v-27H39v13.479m485.384-10.566c-5.089 2.311-8.946 7.217-10.303 13.107-.65 2.823-1.032 27.415-1.032 66.48 0 39.065.382 63.657 1.032 66.48 1.357 5.89 5.214 10.796 10.303 13.107 3.806 1.728 7.207 1.869 45.116 1.869 37.75 0 41.317-.146 45-1.846 4.841-2.234 7.888-5.4 9.952-10.342 1.207-2.887 1.548-7.757 1.548-22.086v-18.383l-9.154-.649c-5.034-.358-11.784-.65-15-.65H596v29h-50V563h50v28h30v-18.532c0-14.465-.34-19.345-1.548-22.236-2.064-4.942-5.111-8.108-9.952-10.342-3.683-1.7-7.25-1.846-45-1.846-37.909 0-41.31.141-45.116 1.869M179 570.692c-9.302 1.561-14.18 6.04-15.97 14.663-.784 3.777-1.042 20.472-.833 53.81.3 47.78.329 48.383 2.53 52.501 1.225 2.291 3.7 5.216 5.5 6.5l3.273 2.334h39.677c38.513 0 39.757-.06 42.438-2.062 3.988-2.978 6.389-6.538 7.428-11.015 1.348-5.814 1.206-98.985-.158-103.9-1.649-5.939-7.251-11.01-13.684-12.388-5.026-1.077-64.201-1.45-70.201-.443m124.297.323c-5.738 1.18-7.747 2.398-11.006 6.67l-2.791 3.658-.272 53.078-.272 53.079 2.272 4.496c1.502 2.972 3.627 5.254 6.272 6.733 3.941 2.205 4.554 2.238 41.282 2.255 29.255.012 37.985-.278 40.547-1.348 4.237-1.77 8.346-6.715 9.672-11.638.689-2.562.957-21.254.776-54.204-.316-57.422-.044-55.515-8.657-60.578l-4.62-2.716-34.5-.175c-18.975-.096-36.392.214-38.703.69M415 635.5V701h83v-23h-53V570h-30v65.5m231 0V701h90v-23h-59v-32h47v-24h-47v-29h57v-23h-88v65.5m110 0V701h27l-.018-31.75c-.016-28.831-.575-40.682-2.533-53.745-1.673-11.154 2.619-3.176 21.66 40.262l19.609 44.733 18.141.273 18.141.272V570h-27l.001 32.75c.001 29.128 1.023 51.395 2.595 56.5.326 1.059.014 1.75-.789 1.75-.792 0-9.399-18.37-21.318-45.498L791.5 570.004l-17.75-.002L756 570v65.5m119-53.509V594h34v108h30V594.047l17.25-.273 17.25-.274v-23l-49.25-.259-49.25-.26v12.01M989 635.5V701h90v-23h-59v-32h47v-24h-47v-29h57v-23h-88v65.5m107-.041V701h31v-53h2.314c1.938 0 5.053 4.313 19.139 26.5l16.824 26.5h17.362c14.038 0 17.361-.262 17.361-1.371 0-.754-8.32-12.341-18.488-25.75-10.168-13.408-18.493-24.716-18.5-25.129-.007-.413 3.475-.76 7.738-.772 10.424-.03 15.101-2.166 18.904-8.636l2.846-4.842V608c0-30.165-.231-31.212-7.771-35.24-4.172-2.23-4.799-2.264-46.479-2.551l-42.25-.291v65.541M193 636v42h41v-84h-41v42m125 0v42h41v-84h-41v42m809.227-24.25l.273 17.75 18.25.273 18.25.272V594h-37.046l.273 17.75" fill="undefined" fill-rule="evenodd"/></svg>