<svg xmlns="http://www.w3.org/2000/svg" width="1240" height="1240"><path d="M256 14.502c-50.657 5.41-97.732 24.698-140 57.359-10.941 8.454-35.685 33.198-44.139 44.139-33.039 42.756-52.38 90.418-57.42 141.5-2.098 21.256-2.05 703.697.05 723.5 3.036 28.629 8.23 49.547 18.747 75.5 33.923 83.714 111.465 147.381 199.762 164.019 25.082 4.726 3.978 4.481 386.344 4.481 217.194 0 360.384-.368 364.074-.935a2720.93 2720.93 0 0113.582-2.043c25.542-3.771 57.436-14.361 82-27.227 24.507-12.835 45.302-28.14 65.616-48.292 22.581-22.399 38.974-44.929 52.303-71.881 14.205-28.724 22.562-56.534 26.949-89.674.825-6.229 1.132-105.638 1.132-366.074 0-381.861.245-360.793-4.481-385.874-17.877-94.872-88.791-175.375-181.835-206.422-9.625-3.212-28.957-8.124-37.684-9.575-24.102-4.007-18.274-3.948-383.5-3.836-269.158.082-352.656.391-361.5 1.335m.247 487.248l.253 191.75 37.728.262 37.728.262.585-2.33c.321-1.282.413-39.65.203-85.262-.428-92.956-.484-93.944-9.867-172.705-1.143-9.596-.851-12.101 1.174-10.076.56.56 7.559 20.555 15.553 44.434 13.512 40.358 17.974 52.905 33.405 93.915 9.799 26.042 17.41 46.355 27.164 72.5l9.327 25h48l3.258-8.5c1.791-4.675 4.123-10.75 5.18-13.5 1.058-2.75 6.263-16.7 11.567-31 9.472-25.537 15.884-42.681 27.491-73.5 7.809-20.732 11.976-32.697 32.512-93.354 2.952-8.72 5.591-16.078 5.863-16.351.273-.272 1.024-.169 1.67.23.756.468.956 2.095.561 4.565-1.454 9.092-6.244 54.129-8.765 82.41-.986 11.066-1.337 37.029-1.337 99v84h77v-383l-46.297-.26-46.297-.26-1.592 3.76c-.875 2.068-3.074 8.035-4.885 13.26s-4.942 14-6.958 19.5c-2.015 5.5-4.025 11.125-4.467 12.5-.443 1.375-3.049 8.8-5.792 16.5a63118.818 63118.818 0 00-19.911 56 3871.64 3871.64 0 01-7.54 21c-9.641 26.581-17.09 49.566-26.897 83-3.831 13.059-4.84 15.5-6.408 15.5-.715 0-1.758-1.462-2.316-3.25L426.969 528l-9.218-29.5c-2.233-7.15-6.432-19.525-9.33-27.5a71383.238 71383.238 0 01-23.887-66c-10.24-28.325-19.471-53.75-20.513-56.5-1.042-2.75-4.427-11.964-7.523-20.476-3.096-8.512-6.105-16.05-6.686-16.75-.828-.998-11.094-1.274-47.437-1.274h-46.38l.252 191.75M655 311.37c0 .753 4.322 10.541 9.604 21.75 5.283 11.209 10.745 22.855 12.138 25.88 1.394 3.025 6.349 13.6 11.013 23.5 4.663 9.9 16.803 35.775 26.978 57.5 10.174 21.725 20.523 43.775 22.997 49 2.474 5.225 5.744 12.2 7.266 15.5 5.248 11.376 15.5 33.171 21.874 46.5l2.63 5.5.5 68.5.5 68.5h85l.5-69 .5-69 6.869-14c3.777-7.7 9.696-20.075 13.152-27.5a4817.256 4817.256 0 0111.925-25.4c3.102-6.546 6.581-13.971 7.729-16.5 1.148-2.53 6.018-12.925 10.823-23.1 4.804-10.175 9.871-20.975 11.26-24 4.95-10.781 38.551-82.42 46.854-99.894 3.238-6.816 5.888-13.008 5.888-13.76 0-1.139-7.446-1.323-44.72-1.106l-44.721.26-6.344 16c-9.523 24.021-30.326 77.32-35.711 91.5a5671.71 5671.71 0 01-10.75 28 5138.996 5138.996 0 00-9.421 24.5c-4.032 10.616-4.603 11.757-6.14 12.269-1.414.471-1.175 1.039-11.253-26.769-4.485-12.375-9.497-26.1-11.139-30.5a1523.46 1523.46 0 01-5.317-14.5c-6.454-17.987-37.698-98.443-38.736-99.75-1.533-1.93-91.748-1.813-91.748.12m85.796 465.199c-28.974 5.772-50.474 28.933-56.496 60.859-2.116 11.221-1.34 34.263 1.507 44.775 9.279 34.25 37.086 54.436 72.193 52.406 10.801-.624 21.008-3.269 27.831-7.212 5.84-3.375 16.874-12.187 17.587-14.045.535-1.392-13.294-18.618-16.632-20.718-1.362-.857-2.284-.545-4.5 1.523C775.03 900.932 764.927 905 755.359 905c-16.706 0-29.665-11.429-35.133-30.987-2.3-8.226-2.19-29.733.193-37.513 4.189-13.681 11.287-23.024 21.303-28.044 5.094-2.552 6.843-2.894 14.778-2.891 9.853.004 14.631 1.748 22.93 8.368 3.194 2.548 4.169 2.894 5.2 1.851 3.987-4.031 16.317-19.466 16.341-20.456.052-2.1-9.286-9.221-17.471-13.326-13.223-6.631-27.545-8.453-42.704-5.433M867 776.552c-14.765 2.994-24.933 8.48-34.578 18.657-14.317 15.107-19.871 31.654-19.899 59.291-.017 16.556 1.223 24.861 5.431 36.373 7.607 20.814 24.315 36.46 44.546 41.716 9.64 2.505 29.36 2.505 39 0 19.189-4.985 35.224-19.125 43.25-38.136 5.305-12.565 6.7-20.853 6.726-39.953.021-15.697-.27-19.088-2.275-26.5-4.098-15.152-9.95-25.705-19.431-35.037-14.607-14.379-40.025-21.024-62.77-16.411M180.439 778.5c-.693.55-3.364 7.75-5.937 16l-7.172 23c-1.372 4.4-3.312 10.7-4.311 14-.999 3.3-4.147 13.425-6.996 22.5a13111.81 13111.81 0 00-7.513 24c-1.283 4.125-5.503 17.587-9.378 29.916-3.874 12.329-6.813 22.792-6.529 23.25.878 1.421 33 1.029 34.125-.416.535-.687 2.884-8.675 5.22-17.75s4.766-16.831 5.4-17.235c1.525-.972 43.81-.952 45.343.023.655.416 3.092 8.172 5.417 17.234 2.324 9.063 4.656 17.041 5.181 17.728 1.481 1.937 35.711 1.782 35.711-.162 0-.776-4.99-17.314-11.089-36.75a34661.577 34661.577 0 01-13.5-43.088c-1.326-4.263-3.57-11.462-4.986-16s-3.249-10.5-4.073-13.25c-2.713-9.06-13.572-42.994-13.859-43.311-.787-.869-39.943-.572-41.054.311m107.99-.385c-.277.448-.676 136.73-.447 152.659.014.992 3.729 1.214 16.768 1l16.75-.274.5-25.5.5-25.5 16-.571c24.345-.87 36.997-4.94 48.522-15.61 13.024-12.058 18.051-31.984 13.026-51.633-4.298-16.804-15.023-26.82-34.548-32.265-4.613-1.287-11.547-1.762-30-2.057-13.2-.21-29.103-.496-35.339-.633-6.237-.138-11.516.035-11.732.384m141.468-.052c-.537.332-.805 31.888-.653 77l.256 76.437 16.733.274 16.733.274.267-25.774.267-25.774 16.5-.631c24.974-.956 37.774-5.159 48.903-16.057 9.695-9.494 14.097-20.973 14.097-36.766 0-19.856-8.002-34.008-23.666-41.855-11.23-5.626-16.38-6.41-44.834-6.83-14.3-.211-29.981-.491-34.847-.622-4.866-.132-9.256.014-9.756.324m188.09.913c-.007.563-.013 34.774-.013 76.024s.006 75.461.013 76.024c.009.669 5.827.929 16.763.75l16.75-.274v-153l-16.75-.274c-10.936-.179-16.754.081-16.763.75m363.257 75.774l.256 76.75 15.75.275c12.23.214 15.758-.009 15.787-1 .458-16.01-.241-75.199-.949-80.295-.533-3.839-1.273-11.48-1.644-16.98-.63-9.341-.564-9.895 1.004-8.401.923.879 4.344 7.786 7.601 15.349 3.258 7.563 9.141 19.893 13.075 27.401 3.933 7.508 9.732 18.601 12.886 24.651l12.512 24c3.727 7.15 7.224 13.573 7.769 14.273.75.962 5.169 1.206 18.101 1l17.108-.273.256-76.75.256-76.75h-32.149l.442 41.75c.384 36.33 1.181 52.278 3.175 63.571.383 2.169.143 2.747-1.04 2.5-.865-.181-3.303-4.476-5.573-9.821-4.943-11.638-15.121-32.514-25.597-52.5-19.698-37.584-22.62-43.077-23.537-44.25-.716-.915-5.643-1.25-18.362-1.25h-17.383l.256 76.75M323.23 805.754c-.976.683-1.207 6.074-1 23.317l.27 22.429 14.5-.007c16.344-.008 19.78-1.061 25.79-7.907 6.721-7.654 7.067-22.848.695-30.422-4.387-5.213-10.946-7.192-25.777-7.777-7.264-.287-13.779-.122-14.478.367m141 .002c-.976.681-1.207 6.072-1 23.315l.27 22.429 12.443.282c15.192.345 21.094-1.161 26.716-6.816 4.75-4.779 6.169-8.687 6.265-17.256.119-10.614-4.443-17.376-13.924-20.638-4.305-1.482-29.019-2.539-30.77-1.316m409.77.179c-8.261 2.522-15.917 8.999-19.82 16.77-8.353 16.631-8.714 43.981-.823 62.391 8.86 20.671 34.125 26.566 49.193 11.478 8.702-8.715 12.895-20.345 14.083-39.074.665-10.47-1.92-25.282-5.796-33.217-3.609-7.386-12.266-15.521-18.702-17.573-5.532-1.763-13.747-2.114-18.135-.775m-675.507 1.315c-.244.688-1.82 7.502-3.502 15.144-2.888 13.122-4.38 19.065-9.143 36.426-1.104 4.027-1.761 7.964-1.459 8.75.776 2.024 30.41 2.116 31.185.098.583-1.52.669-1.137-7.343-32.668-3.285-12.925-6.264-24.737-6.621-26.25-.674-2.86-2.348-3.665-3.117-1.5" fill="undefined" fill-rule="evenodd"/></svg>